M48
; DRILL file {KiCad 7.0.1-3b83917a11~172~ubuntu22.04.1} date Mon 10 Apr 2023 04:41:09 PM CEST
; FORMAT={-:-/ absolute / inch / decimal}
; #@! TF.CreationDate,2023-04-10T16:41:09+02:00
; #@! TF.GenerationSoftware,Kicad,Pcbnew,7.0.1-3b83917a11~172~ubuntu22.04.1
; #@! TF.FileFunction,NonPlated,1,2,NPTH
FMAT,2
INCH
; #@! TA.AperFunction,NonPlated,NPTH,ComponentDrill
T1C0.0670
; #@! TA.AperFunction,NonPlated,NPTH,ComponentDrill
T2C0.1181
; #@! TA.AperFunction,NonPlated,NPTH,ComponentDrill
T3C0.1570
%
G90
G05
T1
X1.6209Y-4.0288
X2.017Y-4.0845
X2.207Y-5.2472
X2.3114Y-4.5045
X2.6031Y-5.3029
X2.7075Y-4.5602
X3.0181Y-5.1511
X3.174Y-4.4175
X3.3299Y-3.6839
X3.4093Y-5.2343
X3.5653Y-4.5007
X3.7212Y-3.7671
X3.8127Y-5.2107
X4.0194Y-4.4898
X4.1972Y-5.321
X4.2262Y-3.7688
X4.4039Y-4.6
X4.5461Y-5.5175
X4.6107Y-3.8791
X4.8026Y-4.8127
X4.922Y-5.6543
X5.0592Y-4.108
X5.1785Y-4.9495
X5.4162Y-5.4351
X5.435Y-4.2448
X5.6727Y-4.7303
X5.6848Y-6.8897
X5.792Y-5.5719
X5.9292Y-4.0256
X6.0485Y-4.8671
X6.0607Y-7.0265
X6.3051Y-4.1624
X6.4653Y-7.2322
X6.793Y-7.4616
X8.4413Y-7.4616
X8.7689Y-7.2322
X8.9292Y-4.1624
X9.1735Y-7.0265
X9.1857Y-4.8671
X9.3051Y-4.0256
X9.4422Y-5.5719
X9.5494Y-6.8897
X9.5616Y-4.7303
X9.7992Y-4.2448
X9.8181Y-5.4351
X10.0557Y-4.9495
X10.1751Y-4.108
X10.3122Y-5.6543
X10.4316Y-4.8127
X10.6236Y-3.8791
X10.6881Y-5.5175
X10.8303Y-4.6
X11.0081Y-3.7688
X11.037Y-5.321
X11.2148Y-4.4898
X11.4215Y-5.2107
X11.513Y-3.7671
X11.669Y-4.5007
X11.8249Y-5.2343
X11.9043Y-3.6839
X12.0602Y-4.4175
X12.2162Y-5.1511
X12.5267Y-4.5602
X12.6311Y-5.3029
X12.9228Y-4.5045
X13.0272Y-5.2472
X13.2172Y-4.0845
X13.6133Y-4.0288
T2
X1.6843Y-3.9367
X1.9458Y-3.8725
X2.2705Y-5.1552
X2.3749Y-4.4125
X2.532Y-5.0909
X2.6363Y-4.3482
X3.0878Y-5.0637
X3.2437Y-4.3301
X3.3531Y-5.0179
X3.3996Y-3.5965
X3.509Y-4.2842
X3.665Y-3.5506
X3.8883Y-5.1284
X4.0951Y-4.4075
X4.1562Y-5.1012
X4.3018Y-3.6865
X4.3629Y-4.3802
X4.5697Y-3.6593
X4.6273Y-5.4406
X4.8838Y-4.7359
X4.8964Y-5.4322
X5.1403Y-4.0311
X5.153Y-4.7274
X5.4095Y-4.0226
X5.4973Y-5.3582
X5.7539Y-4.6535
X5.766Y-6.8128
X5.7665Y-5.3498
X6.0104Y-3.9487
X6.023Y-4.645
X6.0352Y-6.8044
X6.2795Y-3.9402
X6.5636Y-7.1789
X6.8258Y-7.2404
X8.4249Y-7.351
X8.5723Y-7.1257
X8.942Y-4.0513
X9.1427Y-3.8718
X9.1863Y-6.9155
X9.1985Y-4.7561
X9.387Y-6.736
X9.3992Y-4.5766
X9.455Y-5.4608
X9.6557Y-5.2814
X9.812Y-4.1337
X10.0127Y-3.9542
X10.0685Y-4.8385
X10.2692Y-4.659
X10.325Y-5.5432
X10.5257Y-5.3638
X10.6441Y-3.7692
X10.8508Y-4.4901
X10.8568Y-3.6042
X11.0575Y-5.2111
X11.0636Y-4.3251
X11.2703Y-5.0461
X11.5412Y-3.6588
X11.6971Y-4.3925
X11.7649Y-3.509
X11.853Y-5.1261
X11.9208Y-4.2427
X12.0768Y-4.9763
X12.5623Y-4.4542
X12.6667Y-5.1969
X12.796Y-4.3204
X12.9003Y-5.0631
X13.2528Y-3.9785
X13.4865Y-3.8447
T3
X1.819Y-4.0566
X2.4051Y-5.2751
X2.5095Y-4.5324
X3.2137Y-5.1927
X3.3696Y-4.4591
X3.5256Y-3.7255
X4.005Y-5.2659
X4.2117Y-4.5449
X4.4184Y-3.824
X4.7341Y-5.5859
X4.9906Y-4.8811
X5.2471Y-4.1764
X5.6041Y-5.5035
X5.8606Y-4.7987
X5.8728Y-6.9581
X6.1171Y-4.094
X6.6291Y-7.3469
X8.6051Y-7.3469
X9.1171Y-4.094
X9.3615Y-6.9581
X9.3736Y-4.7987
X9.6302Y-5.5035
X9.9871Y-4.1764
X10.2437Y-4.8811
X10.5002Y-5.5859
X10.8158Y-3.824
X11.0226Y-4.5449
X11.2293Y-5.2659
X11.7087Y-3.7255
X11.8646Y-4.4591
X12.0205Y-5.1927
X12.7248Y-4.5324
X12.8292Y-5.2751
X13.4153Y-4.0566
T0
M30
