%TF.GenerationSoftware,KiCad,Pcbnew,7.0.1-3b83917a11~172~ubuntu22.04.1*%
%TF.CreationDate,2023-04-10T14:49:45+02:00*%
%TF.ProjectId,koala-v1_ne,6b6f616c-612d-4763-915f-6e652e6b6963,v1.0.0*%
%TF.SameCoordinates,Original*%
%TF.FileFunction,Soldermask,Top*%
%TF.FilePolarity,Negative*%
%FSLAX46Y46*%
G04 Gerber Fmt 4.6, Leading zero omitted, Abs format (unit mm)*
G04 Created by KiCad (PCBNEW 7.0.1-3b83917a11~172~ubuntu22.04.1) date 2023-04-10 14:49:45*
%MOMM*%
%LPD*%
G01*
G04 APERTURE LIST*
G04 Aperture macros list*
%AMRoundRect*
0 Rectangle with rounded corners*
0 $1 Rounding radius*
0 $2 $3 $4 $5 $6 $7 $8 $9 X,Y pos of 4 corners*
0 Add a 4 corners polygon primitive as box body*
4,1,4,$2,$3,$4,$5,$6,$7,$8,$9,$2,$3,0*
0 Add four circle primitives for the rounded corners*
1,1,$1+$1,$2,$3*
1,1,$1+$1,$4,$5*
1,1,$1+$1,$6,$7*
1,1,$1+$1,$8,$9*
0 Add four rect primitives between the rounded corners*
20,1,$1+$1,$2,$3,$4,$5,0*
20,1,$1+$1,$4,$5,$6,$7,0*
20,1,$1+$1,$6,$7,$8,$9,0*
20,1,$1+$1,$8,$9,$2,$3,0*%
G04 Aperture macros list end*
%ADD10C,1.801800*%
%ADD11C,3.100000*%
%ADD12C,4.087800*%
%ADD13RoundRect,0.050000X-1.054407X-0.684740X0.684740X-1.054407X1.054407X0.684740X-0.684740X1.054407X0*%
%ADD14RoundRect,0.050000X-0.564913X-0.493328X0.315419X-0.680449X0.564913X0.493328X-0.315419X0.680449X0*%
%ADD15C,2.005000*%
%ADD16RoundRect,0.050000X-0.609520X-1.099603X1.099603X-0.609520X0.609520X1.099603X-1.099603X0.609520X0*%
%ADD17RoundRect,0.050000X-0.267185X-0.700794X0.597950X-0.452720X0.267185X0.700794X-0.597950X0.452720X0*%
%ADD18RoundRect,0.050000X-1.139443X-0.531331X0.531331X-1.139443X1.139443X0.531331X-0.531331X1.139443X0*%
%ADD19RoundRect,0.050000X-0.628074X-0.409907X0.217650X-0.717725X0.628074X0.409907X-0.217650X0.717725X0*%
%ADD20RoundRect,0.050000X-0.531331X-1.139443X1.139443X-0.531331X0.531331X1.139443X-1.139443X0.531331X0*%
%ADD21RoundRect,0.050000X-0.217650X-0.717725X0.628074X-0.409907X0.217650X0.717725X-0.628074X0.409907X0*%
%ADD22RoundRect,0.050000X-1.004073X-0.756623X0.756623X-1.004073X1.004073X0.756623X-0.756623X1.004073X0*%
%ADD23RoundRect,0.050000X-0.529124X-0.531533X0.362117X-0.656789X0.529124X0.531533X-0.362117X0.656789X0*%
%ADD24RoundRect,0.050000X-0.218317X-1.238136X1.238136X-0.218317X0.218317X1.238136X-1.238136X0.218317X0*%
%ADD25RoundRect,0.050000X-0.024473X-0.749601X0.712764X-0.233382X0.024473X0.749601X-0.712764X0.233382X0*%
%ADD26RoundRect,0.050000X-0.684740X-1.054407X1.054407X-0.684740X0.684740X1.054407X-1.054407X0.684740X0*%
%ADD27RoundRect,0.050000X-0.315419X-0.680449X0.564913X-0.493328X0.315419X0.680449X-0.564913X0.493328X0*%
%ADD28RoundRect,0.050000X-0.756623X-1.004073X1.004073X-0.756623X0.756623X1.004073X-1.004073X0.756623X0*%
%ADD29RoundRect,0.050000X-0.362117X-0.656789X0.529124X-0.531533X0.362117X0.656789X-0.529124X0.531533X0*%
%ADD30RoundRect,0.050000X-0.876300X0.876300X-0.876300X-0.876300X0.876300X-0.876300X0.876300X0.876300X0*%
%ADD31C,1.852600*%
%ADD32RoundRect,0.050000X-1.099603X-0.609520X0.609520X-1.099603X1.099603X0.609520X-0.609520X1.099603X0*%
%ADD33RoundRect,0.050000X-0.597950X-0.452720X0.267185X-0.700794X0.597950X0.452720X-0.267185X0.700794X0*%
%ADD34RoundRect,0.050000X-1.238136X-0.218317X0.218317X-1.238136X1.238136X0.218317X-0.218317X1.238136X0*%
%ADD35RoundRect,0.050000X-0.712764X-0.233382X0.024473X-0.749601X0.712764X0.233382X-0.024473X0.749601X0*%
G04 APERTURE END LIST*
D10*
%TO.C,S13*%
X137570303Y-138051358D03*
D11*
X139632444Y-136098904D03*
D12*
X142343942Y-139788820D03*
D11*
X146468224Y-135883913D03*
D10*
X147117581Y-141526282D03*
%TD*%
D13*
%TO.C,D4*%
X76861705Y-135992941D03*
D14*
X78974503Y-136442031D03*
X82202391Y-137128139D03*
D15*
X84315189Y-137577229D03*
%TD*%
D16*
%TO.C,D25*%
X277688843Y-121297514D03*
D17*
X279765168Y-120702138D03*
X282937332Y-119792534D03*
D15*
X285013657Y-119197158D03*
%TD*%
D18*
%TO.C,D12*%
X127986002Y-109474965D03*
D19*
X130015738Y-110213729D03*
X133116724Y-111342395D03*
D15*
X135146460Y-112081159D03*
%TD*%
D10*
%TO.C,S1*%
X56058823Y-133279532D03*
D11*
X57669963Y-130941001D03*
D12*
X61089385Y-133986531D03*
D11*
X64311665Y-129309469D03*
D10*
X66119947Y-134693530D03*
%TD*%
%TO.C,S32*%
X226801271Y-105723995D03*
D11*
X227125950Y-102902810D03*
D12*
X231574910Y-103986533D03*
D11*
X232224267Y-98344163D03*
D10*
X236348549Y-102249071D03*
%TD*%
%TO.C,S16*%
X144395128Y-174998787D03*
D11*
X146457269Y-173046333D03*
D12*
X149168767Y-176736249D03*
D11*
X153293049Y-172831342D03*
D10*
X153942406Y-178473711D03*
%TD*%
D20*
%TO.C,D33*%
X235910930Y-182737813D03*
D21*
X237940666Y-181999049D03*
X241041652Y-180870383D03*
D15*
X243071388Y-180131619D03*
%TD*%
D10*
%TO.C,S3*%
X41171088Y-102331378D03*
D11*
X42782228Y-99992847D03*
D12*
X46201650Y-103038377D03*
D11*
X49423930Y-98361315D03*
D10*
X51232212Y-103745376D03*
%TD*%
%TO.C,S6*%
X84580447Y-93570732D03*
D11*
X86350790Y-91350285D03*
D12*
X89549437Y-94626923D03*
D11*
X93090123Y-90186029D03*
D10*
X94518427Y-95683114D03*
%TD*%
D20*
%TO.C,D31*%
X236220265Y-127889238D03*
D21*
X238250001Y-127150474D03*
X241350987Y-126021808D03*
D15*
X243380723Y-125283044D03*
%TD*%
D10*
%TO.C,S25*%
X275089853Y-116841259D03*
D11*
X275610536Y-114049595D03*
D12*
X279973062Y-115441021D03*
D11*
X281014429Y-109857693D03*
D10*
X284856271Y-114040783D03*
%TD*%
%TO.C,S34*%
X214408316Y-189524540D03*
D11*
X213991755Y-186715452D03*
D12*
X218569608Y-186610772D03*
D11*
X217736486Y-180992595D03*
D10*
X222730900Y-183697004D03*
%TD*%
%TO.C,S29*%
X248899851Y-107817062D03*
D11*
X249224530Y-104995877D03*
D12*
X253673490Y-106079600D03*
D11*
X254322847Y-100437230D03*
D10*
X258447129Y-104342138D03*
%TD*%
D18*
%TO.C,D16*%
X143878442Y-180131617D03*
D19*
X145908178Y-180870381D03*
X149009164Y-181999047D03*
D15*
X151038900Y-182737811D03*
%TD*%
D10*
%TO.C,S21*%
X300352838Y-132950541D03*
D11*
X301066990Y-130201999D03*
D12*
X305321828Y-131894350D03*
D11*
X306750132Y-126397264D03*
D10*
X310290818Y-130838159D03*
%TD*%
%TO.C,S24*%
X280340757Y-135153302D03*
D11*
X280861440Y-132361638D03*
D12*
X285223966Y-133753064D03*
D11*
X286265333Y-128169736D03*
D10*
X290107175Y-132352826D03*
%TD*%
%TO.C,S26*%
X269838967Y-98529231D03*
D11*
X270359650Y-95737567D03*
D12*
X274722176Y-97128993D03*
D11*
X275763543Y-91545665D03*
D10*
X279605385Y-95728755D03*
%TD*%
%TO.C,S18*%
X320829881Y-134693528D03*
D11*
X321734022Y-132001498D03*
D12*
X325860443Y-133986529D03*
D11*
X327668725Y-128602468D03*
D10*
X330891005Y-133279530D03*
%TD*%
D22*
%TO.C,D3*%
X41732856Y-107459463D03*
D23*
X43871835Y-107760077D03*
X47139719Y-108219349D03*
D15*
X49278698Y-108519963D03*
%TD*%
D10*
%TO.C,S12*%
X128502695Y-104342142D03*
D11*
X130564836Y-102389688D03*
D12*
X133276334Y-106079604D03*
D11*
X137400616Y-102174697D03*
D10*
X138049973Y-107817066D03*
%TD*%
D18*
%TO.C,D14*%
X143569102Y-125283047D03*
D19*
X145598838Y-126021811D03*
X148699824Y-127150477D03*
D15*
X150729560Y-127889241D03*
%TD*%
D24*
%TO.C,D34*%
X218316526Y-192891861D03*
D25*
X220085894Y-191652936D03*
X222789096Y-189760134D03*
D15*
X224558464Y-188521209D03*
%TD*%
D26*
%TO.C,D21*%
X302634635Y-137577233D03*
D27*
X304747433Y-137128143D03*
X307975321Y-136442035D03*
D15*
X310088119Y-135992945D03*
%TD*%
D10*
%TO.C,S22*%
X296392117Y-114316827D03*
D11*
X297106269Y-111568285D03*
D12*
X301361107Y-113260636D03*
D11*
X302789411Y-107763550D03*
D10*
X306330097Y-112204445D03*
%TD*%
%TO.C,S30*%
X239832242Y-141526287D03*
D11*
X240156921Y-138705102D03*
D12*
X244605881Y-139788825D03*
D11*
X245255238Y-134146455D03*
D10*
X249379520Y-138051363D03*
%TD*%
D20*
%TO.C,D29*%
X251803359Y-112081165D03*
D21*
X253833095Y-111342401D03*
X256934081Y-110213735D03*
D15*
X258963817Y-109474971D03*
%TD*%
D10*
%TO.C,S8*%
X102093546Y-114040784D03*
D11*
X104014467Y-111949239D03*
D12*
X106976755Y-115441022D03*
D11*
X110818597Y-111257931D03*
D10*
X111859964Y-116841260D03*
%TD*%
%TO.C,S5*%
X80619741Y-112204452D03*
D11*
X82390084Y-109984005D03*
D12*
X85588731Y-113260643D03*
D11*
X89129417Y-108819749D03*
D10*
X90557721Y-114316834D03*
%TD*%
D22*
%TO.C,D2*%
X59271840Y-119543012D03*
D23*
X61410819Y-119843626D03*
X64678703Y-120302898D03*
D15*
X66817682Y-120603512D03*
%TD*%
D18*
%TO.C,D11*%
X121470521Y-127376114D03*
D19*
X123500257Y-128114878D03*
X126601243Y-129243544D03*
D15*
X128630979Y-129982308D03*
%TD*%
D28*
%TO.C,D18*%
X322783384Y-139468122D03*
D29*
X324922363Y-139167508D03*
X328190247Y-138708236D03*
D15*
X330329226Y-138407622D03*
%TD*%
D28*
%TO.C,D20*%
X337671122Y-108519960D03*
D29*
X339810101Y-108219346D03*
X343077985Y-107760074D03*
D15*
X345216964Y-107459460D03*
%TD*%
D10*
%TO.C,S4*%
X76659016Y-130838157D03*
D11*
X78429359Y-128617710D03*
D12*
X81628006Y-131894348D03*
D11*
X85168692Y-127453454D03*
D10*
X86596996Y-132950539D03*
%TD*%
D30*
%TO.C,MCU1*%
X185854909Y-102917674D03*
D31*
X185854909Y-105457674D03*
X185854909Y-107997674D03*
X185854909Y-110537674D03*
X185854909Y-113077674D03*
X185854909Y-115617674D03*
X185854909Y-118157674D03*
X185854909Y-120697674D03*
X185854909Y-123237674D03*
X185854909Y-125777674D03*
X185854909Y-128317674D03*
X185854909Y-130857674D03*
X201094909Y-102917674D03*
X201094909Y-105457674D03*
X201094909Y-107997674D03*
X201094909Y-110537674D03*
X201094909Y-113077674D03*
X201094909Y-115617674D03*
X201094909Y-118157674D03*
X201094909Y-120697674D03*
X201094909Y-123237674D03*
X201094909Y-125777674D03*
X201094909Y-128317674D03*
X201094909Y-130857674D03*
%TD*%
D26*
%TO.C,D23*%
X294713201Y-100309807D03*
D27*
X296825999Y-99860717D03*
X300053887Y-99174609D03*
D15*
X302166685Y-98725519D03*
%TD*%
D10*
%TO.C,S7*%
X96842653Y-132352824D03*
D11*
X98763574Y-130261279D03*
D12*
X101725862Y-133753062D03*
D11*
X105567704Y-129569971D03*
D10*
X106609071Y-135153300D03*
%TD*%
D16*
%TO.C,D24*%
X282939736Y-139609544D03*
D17*
X285016061Y-139014168D03*
X288188225Y-138104564D03*
D15*
X290264550Y-137509188D03*
%TD*%
D10*
%TO.C,S19*%
X318178638Y-115828927D03*
D11*
X319082779Y-113136897D03*
D12*
X323209200Y-115121928D03*
D11*
X325017482Y-109737867D03*
D10*
X328239762Y-114414929D03*
%TD*%
%TO.C,S28*%
X255415332Y-125718203D03*
D11*
X255740011Y-122897018D03*
D12*
X260188971Y-123980741D03*
D11*
X260838328Y-118338371D03*
D10*
X264962610Y-122243279D03*
%TD*%
%TO.C,S23*%
X292431403Y-95683119D03*
D11*
X293145555Y-92934577D03*
D12*
X297400393Y-94626928D03*
D11*
X298828697Y-89129842D03*
D10*
X302369383Y-93570737D03*
%TD*%
D18*
%TO.C,D10*%
X114955032Y-145277258D03*
D19*
X116984768Y-146016022D03*
X120085754Y-147144688D03*
D15*
X122115490Y-147883452D03*
%TD*%
D10*
%TO.C,S11*%
X121987213Y-122243282D03*
D11*
X124049354Y-120290828D03*
D12*
X126760852Y-123980744D03*
D11*
X130885134Y-120075837D03*
D10*
X131534491Y-125718206D03*
%TD*%
D22*
%TO.C,D1*%
X56620594Y-138407626D03*
D23*
X58759573Y-138708240D03*
X62027457Y-139167512D03*
D15*
X64166436Y-139468126D03*
%TD*%
D13*
%TO.C,D5*%
X80822426Y-117359232D03*
D14*
X82935224Y-117808322D03*
X86163112Y-118494430D03*
D15*
X88275910Y-118943520D03*
%TD*%
D32*
%TO.C,D9*%
X107187064Y-100885124D03*
D33*
X109263389Y-101480500D03*
X112435553Y-102390104D03*
D15*
X114511878Y-102985480D03*
%TD*%
D10*
%TO.C,S31*%
X233316760Y-123625138D03*
D11*
X233641439Y-120803953D03*
D12*
X238090399Y-121887676D03*
D11*
X238739756Y-116245306D03*
D10*
X242864038Y-120150214D03*
%TD*%
%TO.C,S15*%
X150601273Y-102249069D03*
D11*
X152663414Y-100296615D03*
D12*
X155374912Y-103986531D03*
D11*
X159499194Y-100081624D03*
D10*
X160148551Y-105723993D03*
%TD*%
D20*
%TO.C,D28*%
X258318848Y-129982307D03*
D21*
X260348584Y-129243543D03*
X263449570Y-128114877D03*
D15*
X265479306Y-127376113D03*
%TD*%
D16*
%TO.C,D26*%
X272437950Y-102985478D03*
D17*
X274514275Y-102390102D03*
X277686439Y-101480498D03*
D15*
X279762764Y-100885122D03*
%TD*%
D18*
%TO.C,D15*%
X150084589Y-107381903D03*
D19*
X152114325Y-108120667D03*
X155215311Y-109249333D03*
D15*
X157245047Y-109988097D03*
%TD*%
D20*
%TO.C,D27*%
X264834328Y-147883454D03*
D21*
X266864064Y-147144690D03*
X269965050Y-146016024D03*
D15*
X271994786Y-145277260D03*
%TD*%
D34*
%TO.C,D17*%
X162391362Y-188521203D03*
D35*
X164160730Y-189760128D03*
X166863932Y-191652930D03*
D15*
X168633300Y-192891855D03*
%TD*%
D20*
%TO.C,D32*%
X229704786Y-109988093D03*
D21*
X231734522Y-109249329D03*
X234835508Y-108120663D03*
D15*
X236865244Y-107381899D03*
%TD*%
D32*
%TO.C,D8*%
X101936167Y-119197154D03*
D33*
X104012492Y-119792530D03*
X107184656Y-120702134D03*
D15*
X109260981Y-121297510D03*
%TD*%
D20*
%TO.C,D30*%
X242735750Y-145790381D03*
D21*
X244765486Y-145051617D03*
X247866472Y-143922951D03*
D15*
X249896208Y-143184187D03*
%TD*%
D32*
%TO.C,D7*%
X96685271Y-137509189D03*
D33*
X98761596Y-138104565D03*
X101933760Y-139014169D03*
D15*
X104010085Y-139609545D03*
%TD*%
D10*
%TO.C,S17*%
X164218922Y-183697007D03*
D11*
X166716129Y-182344803D03*
D12*
X168380214Y-186610775D03*
D11*
X173374628Y-183906367D03*
D10*
X172541506Y-189524543D03*
%TD*%
%TO.C,S10*%
X115471735Y-140144430D03*
D11*
X117533876Y-138191976D03*
D12*
X120245374Y-141881892D03*
D11*
X124369656Y-137976985D03*
D10*
X125019013Y-143619354D03*
%TD*%
D13*
%TO.C,D6*%
X84783141Y-98725521D03*
D14*
X86895939Y-99174611D03*
X90123827Y-99860719D03*
D15*
X92236625Y-100309809D03*
%TD*%
D10*
%TO.C,S27*%
X261930822Y-143619351D03*
D11*
X262255501Y-140798166D03*
D12*
X266704461Y-141881889D03*
D11*
X267353818Y-136239519D03*
D10*
X271478100Y-140144427D03*
%TD*%
D18*
%TO.C,D13*%
X137053617Y-143184192D03*
D19*
X139083353Y-143922956D03*
X142184339Y-145051622D03*
D15*
X144214075Y-145790386D03*
%TD*%
D10*
%TO.C,S14*%
X144085788Y-120150218D03*
D11*
X146147929Y-118197764D03*
D12*
X148859427Y-121887680D03*
D11*
X152983709Y-117982773D03*
D10*
X153633066Y-123625142D03*
%TD*%
D26*
%TO.C,D22*%
X298673921Y-118943520D03*
D27*
X300786719Y-118494430D03*
X304014607Y-117808322D03*
D15*
X306127405Y-117359232D03*
%TD*%
D10*
%TO.C,S9*%
X107344448Y-95728750D03*
D11*
X109265369Y-93637205D03*
D12*
X112227657Y-97128988D03*
D11*
X116069499Y-92945897D03*
D10*
X117110866Y-98529226D03*
%TD*%
%TO.C,S2*%
X58710062Y-114414927D03*
D11*
X60321202Y-112076396D03*
D12*
X63740624Y-115121926D03*
D11*
X66962904Y-110444864D03*
D10*
X68771186Y-115828925D03*
%TD*%
%TO.C,S20*%
X335717618Y-103745372D03*
D11*
X336621759Y-101053342D03*
D12*
X340748180Y-103038373D03*
D11*
X342556462Y-97654312D03*
D10*
X345778742Y-102331374D03*
%TD*%
D28*
%TO.C,D19*%
X320132143Y-120603512D03*
D29*
X322271122Y-120302898D03*
X325539006Y-119843626D03*
D15*
X327677985Y-119543012D03*
%TD*%
D10*
%TO.C,S33*%
X233007422Y-178473714D03*
D11*
X233332101Y-175652529D03*
D12*
X237781061Y-176736252D03*
D11*
X238430418Y-171093882D03*
D10*
X242554700Y-174998790D03*
%TD*%
M02*
