M48
; DRILL file {KiCad 7.0.1-3b83917a11~172~ubuntu22.04.1} date Mon 10 Apr 2023 04:41:09 PM CEST
; FORMAT={-:-/ absolute / inch / decimal}
; #@! TF.CreationDate,2023-04-10T16:41:09+02:00
; #@! TF.GenerationSoftware,Kicad,Pcbnew,7.0.1-3b83917a11~172~ubuntu22.04.1
; #@! TF.FileFunction,Plated,1,2,PTH
FMAT,2
INCH
; #@! TA.AperFunction,Plated,PTH,ComponentDrill
T1C0.0390
; #@! TA.AperFunction,Plated,PTH,ComponentDrill
T2C0.0430
%
G90
G05
T1
X1.643Y-4.2307
X1.9401Y-4.2724
X2.2292Y-5.4491
X2.3335Y-4.7064
X2.5262Y-5.4909
X2.6306Y-4.7482
X3.0261Y-5.3541
X3.182Y-4.6204
X3.3195Y-5.4164
X3.3379Y-3.8868
X3.4754Y-4.6828
X3.6314Y-3.9492
X3.8065Y-5.4137
X4.0132Y-4.6928
X4.0949Y-5.4964
X4.22Y-3.9719
X4.3016Y-4.7755
X4.5083Y-4.0545
X4.5258Y-5.7196
X4.7823Y-5.0148
X4.8077Y-5.8222
X5.0388Y-4.31
X5.0642Y-5.1174
X5.3207Y-4.4126
X5.3958Y-5.6372
X5.6523Y-4.9324
X5.6645Y-7.0918
X5.6777Y-5.7398
X5.9088Y-4.2276
X5.9342Y-5.035
X5.9464Y-7.1944
X6.1907Y-4.3302
X6.3934Y-7.4221
X6.6391Y-7.5942
X8.5951Y-7.5942
X8.8409Y-7.4221
X9.0435Y-4.3302
X9.2878Y-7.1944
X9.3Y-5.035
X9.3254Y-4.2276
X9.5565Y-5.7398
X9.5697Y-7.0918
X9.5819Y-4.9324
X9.8384Y-5.6372
X9.9135Y-4.4126
X10.17Y-5.1174
X10.1954Y-4.31
X10.4265Y-5.8222
X10.4519Y-5.0148
X10.7085Y-5.7196
X10.7259Y-4.0545
X10.9326Y-4.7755
X11.0143Y-3.9719
X11.1394Y-5.4964
X11.221Y-4.6928
X11.4277Y-5.4137
X11.6029Y-3.9492
X11.7588Y-4.6828
X11.8963Y-3.8868
X11.9147Y-5.4164
X12.0523Y-4.6204
X12.2082Y-5.3541
X12.6036Y-4.7482
X12.708Y-5.4909
X12.9007Y-4.7064
X13.0051Y-5.4491
X13.2941Y-4.2724
X13.5912Y-4.2307
T2
X7.3171Y-4.0519
X7.3171Y-4.1519
X7.3171Y-4.2519
X7.3171Y-4.3519
X7.3171Y-4.4519
X7.3171Y-4.5519
X7.3171Y-4.6519
X7.3171Y-4.7519
X7.3171Y-4.8519
X7.3171Y-4.9519
X7.3171Y-5.0519
X7.3171Y-5.1519
X7.9171Y-4.0519
X7.9171Y-4.1519
X7.9171Y-4.2519
X7.9171Y-4.3519
X7.9171Y-4.4519
X7.9171Y-4.5519
X7.9171Y-4.6519
X7.9171Y-4.7519
X7.9171Y-4.8519
X7.9171Y-4.9519
X7.9171Y-5.0519
X7.9171Y-5.1519
T0
M30
