%TF.GenerationSoftware,KiCad,Pcbnew,7.0.1-3b83917a11~172~ubuntu22.04.1*%
%TF.CreationDate,2023-04-10T14:49:45+02:00*%
%TF.ProjectId,koala-v1_ne,6b6f616c-612d-4763-915f-6e652e6b6963,v1.0.0*%
%TF.SameCoordinates,Original*%
%TF.FileFunction,Profile,NP*%
%FSLAX46Y46*%
G04 Gerber Fmt 4.6, Leading zero omitted, Abs format (unit mm)*
G04 Created by KiCad (PCBNEW 7.0.1-3b83917a11~172~ubuntu22.04.1) date 2023-04-10 14:49:45*
%MOMM*%
%LPD*%
G01*
G04 APERTURE LIST*
%TA.AperFunction,Profile*%
%ADD10C,0.150000*%
%TD*%
G04 APERTURE END LIST*
D10*
X71598944Y-147480935D02*
X51185126Y-144282994D01*
X261322427Y-160834164D02*
X253371489Y-181496827D01*
X33437704Y-111048267D02*
G75*
G03*
X33972365Y-114484325I5941584J-835097D01*
G01*
X133578334Y-181496826D02*
X125627402Y-160834159D01*
X104509358Y-82900085D02*
G75*
G03*
X104141026Y-82858755I-852371J-5934380D01*
G01*
X149070815Y-89427378D02*
G75*
G03*
X147871483Y-89126452I-2052128J-5638284D01*
G01*
X313749818Y-147515436D02*
X297871050Y-145724534D01*
X89078772Y-145724541D02*
X73200007Y-147515431D01*
X313749819Y-147515427D02*
G75*
G03*
X315350869Y-147480940I672466J5962263D01*
G01*
X169152496Y-96736530D02*
G75*
G03*
X171204616Y-97098357I2052089J5638266D01*
G01*
X250527858Y-184671594D02*
X217035848Y-201991496D01*
X335764701Y-144282980D02*
G75*
G03*
X340242998Y-140956314I-928615J5927718D01*
G01*
X40541754Y-89172274D02*
X79835890Y-81128837D01*
X282808795Y-82858759D02*
G75*
G03*
X282440465Y-82900084I484887J-5984002D01*
G01*
X104509358Y-82900083D02*
X147871483Y-89126452D01*
X214279754Y-202661964D02*
X172670074Y-202661968D01*
X352977458Y-114484326D02*
X340243006Y-140956303D01*
X215745213Y-97098340D02*
G75*
G03*
X217797331Y-96736515I73J5999875D01*
G01*
X81523603Y-81026546D02*
X104141026Y-82858754D01*
X33437672Y-111048263D02*
X35803375Y-94215345D01*
X295100241Y-146065631D02*
X264823794Y-157367804D01*
X307113929Y-81128834D02*
X346408083Y-89172272D01*
X125627432Y-160834147D02*
G75*
G03*
X122126027Y-157367808I-5599749J-2154815D01*
G01*
X239078336Y-89126449D02*
X282440465Y-82900083D01*
X133578349Y-181496820D02*
G75*
G03*
X136421975Y-184671592I5599736J2154756D01*
G01*
X335764704Y-144282996D02*
X315350880Y-147480934D01*
X307113928Y-81128838D02*
G75*
G03*
X305426227Y-81026543I-1203243J-5878225D01*
G01*
X250527853Y-184671587D02*
G75*
G03*
X253371495Y-181496816I-2756072J5329524D01*
G01*
X239078337Y-89126456D02*
G75*
G03*
X237879018Y-89427384I852848J-5939305D01*
G01*
X282808795Y-82858754D02*
X305426227Y-81026542D01*
X81523603Y-81026550D02*
G75*
G03*
X79835890Y-81128838I-484523J-5980016D01*
G01*
X149070812Y-89427385D02*
X169152501Y-96736515D01*
X214279754Y-202661983D02*
G75*
G03*
X217035844Y-201991498I-73J6000122D01*
G01*
X351146459Y-94215346D02*
G75*
G03*
X346408076Y-89172279I-5941676J-835114D01*
G01*
X40541749Y-89172250D02*
G75*
G03*
X35803374Y-94215349I1203235J-5878112D01*
G01*
X122126027Y-157367807D02*
X91849580Y-146065626D01*
X217797326Y-96736515D02*
X237879018Y-89427383D01*
X91849573Y-146065645D02*
G75*
G03*
X89078772Y-145724542I-2098392J-5621116D01*
G01*
X171204616Y-97098357D02*
X215745213Y-97098359D01*
X46706843Y-140956299D02*
G75*
G03*
X51185125Y-144282993I5406941J2601036D01*
G01*
X297871048Y-145724544D02*
G75*
G03*
X295100239Y-146065627I-672468J-5962119D01*
G01*
X71598945Y-147480929D02*
G75*
G03*
X73200007Y-147515430I928640J5927770D01*
G01*
X46706816Y-140956312D02*
X33972365Y-114484325D01*
X264823800Y-157367821D02*
G75*
G03*
X261322424Y-160834165I2098384J-5621145D01*
G01*
X351146448Y-94215347D02*
X353512155Y-111048273D01*
X169913983Y-201991487D02*
G75*
G03*
X172670074Y-202661968I2756101J5329422D01*
G01*
X169913977Y-201991499D02*
X136421975Y-184671593D01*
X352977432Y-114484313D02*
G75*
G03*
X353512155Y-111048273I-5406848J2601051D01*
G01*
M02*
