%TF.GenerationSoftware,KiCad,Pcbnew,7.0.1-3b83917a11~172~ubuntu22.04.1*%
%TF.CreationDate,2023-04-10T14:49:45+02:00*%
%TF.ProjectId,koala-v1_ne,6b6f616c-612d-4763-915f-6e652e6b6963,v1.0.0*%
%TF.SameCoordinates,Original*%
%TF.FileFunction,Legend,Bot*%
%TF.FilePolarity,Positive*%
%FSLAX46Y46*%
G04 Gerber Fmt 4.6, Leading zero omitted, Abs format (unit mm)*
G04 Created by KiCad (PCBNEW 7.0.1-3b83917a11~172~ubuntu22.04.1) date 2023-04-10 14:49:45*
%MOMM*%
%LPD*%
G01*
G04 APERTURE LIST*
%ADD10C,0.300000*%
%ADD11C,0.100000*%
%ADD12R,1.752600X1.752600*%
%ADD13C,1.752600*%
G04 APERTURE END LIST*
D10*
X207514446Y-195150759D02*
X207514446Y-193150759D01*
X207323970Y-194388854D02*
X206752541Y-195150759D01*
X206752541Y-193817425D02*
X207514446Y-194579330D01*
X205609684Y-195150759D02*
X205800160Y-195055521D01*
X205800160Y-195055521D02*
X205895398Y-194960282D01*
X205895398Y-194960282D02*
X205990636Y-194769806D01*
X205990636Y-194769806D02*
X205990636Y-194198378D01*
X205990636Y-194198378D02*
X205895398Y-194007901D01*
X205895398Y-194007901D02*
X205800160Y-193912663D01*
X205800160Y-193912663D02*
X205609684Y-193817425D01*
X205609684Y-193817425D02*
X205323969Y-193817425D01*
X205323969Y-193817425D02*
X205133493Y-193912663D01*
X205133493Y-193912663D02*
X205038255Y-194007901D01*
X205038255Y-194007901D02*
X204943017Y-194198378D01*
X204943017Y-194198378D02*
X204943017Y-194769806D01*
X204943017Y-194769806D02*
X205038255Y-194960282D01*
X205038255Y-194960282D02*
X205133493Y-195055521D01*
X205133493Y-195055521D02*
X205323969Y-195150759D01*
X205323969Y-195150759D02*
X205609684Y-195150759D01*
X203228731Y-195150759D02*
X203228731Y-194103140D01*
X203228731Y-194103140D02*
X203323969Y-193912663D01*
X203323969Y-193912663D02*
X203514445Y-193817425D01*
X203514445Y-193817425D02*
X203895398Y-193817425D01*
X203895398Y-193817425D02*
X204085874Y-193912663D01*
X203228731Y-195055521D02*
X203419207Y-195150759D01*
X203419207Y-195150759D02*
X203895398Y-195150759D01*
X203895398Y-195150759D02*
X204085874Y-195055521D01*
X204085874Y-195055521D02*
X204181112Y-194865044D01*
X204181112Y-194865044D02*
X204181112Y-194674568D01*
X204181112Y-194674568D02*
X204085874Y-194484092D01*
X204085874Y-194484092D02*
X203895398Y-194388854D01*
X203895398Y-194388854D02*
X203419207Y-194388854D01*
X203419207Y-194388854D02*
X203228731Y-194293616D01*
X201990636Y-195150759D02*
X202181112Y-195055521D01*
X202181112Y-195055521D02*
X202276350Y-194865044D01*
X202276350Y-194865044D02*
X202276350Y-193150759D01*
X200371588Y-195150759D02*
X200371588Y-194103140D01*
X200371588Y-194103140D02*
X200466826Y-193912663D01*
X200466826Y-193912663D02*
X200657302Y-193817425D01*
X200657302Y-193817425D02*
X201038255Y-193817425D01*
X201038255Y-193817425D02*
X201228731Y-193912663D01*
X200371588Y-195055521D02*
X200562064Y-195150759D01*
X200562064Y-195150759D02*
X201038255Y-195150759D01*
X201038255Y-195150759D02*
X201228731Y-195055521D01*
X201228731Y-195055521D02*
X201323969Y-194865044D01*
X201323969Y-194865044D02*
X201323969Y-194674568D01*
X201323969Y-194674568D02*
X201228731Y-194484092D01*
X201228731Y-194484092D02*
X201038255Y-194388854D01*
X201038255Y-194388854D02*
X200562064Y-194388854D01*
X200562064Y-194388854D02*
X200371588Y-194293616D01*
X197895397Y-195150759D02*
X197895397Y-193150759D01*
X197895397Y-193912663D02*
X197704921Y-193817425D01*
X197704921Y-193817425D02*
X197323968Y-193817425D01*
X197323968Y-193817425D02*
X197133492Y-193912663D01*
X197133492Y-193912663D02*
X197038254Y-194007901D01*
X197038254Y-194007901D02*
X196943016Y-194198378D01*
X196943016Y-194198378D02*
X196943016Y-194769806D01*
X196943016Y-194769806D02*
X197038254Y-194960282D01*
X197038254Y-194960282D02*
X197133492Y-195055521D01*
X197133492Y-195055521D02*
X197323968Y-195150759D01*
X197323968Y-195150759D02*
X197704921Y-195150759D01*
X197704921Y-195150759D02*
X197895397Y-195055521D01*
X196276349Y-193817425D02*
X195800159Y-195150759D01*
X195323968Y-193817425D02*
X195800159Y-195150759D01*
X195800159Y-195150759D02*
X195990635Y-195626949D01*
X195990635Y-195626949D02*
X196085873Y-195722187D01*
X196085873Y-195722187D02*
X196276349Y-195817425D01*
X192181110Y-195055521D02*
X192371586Y-195150759D01*
X192371586Y-195150759D02*
X192752539Y-195150759D01*
X192752539Y-195150759D02*
X192943015Y-195055521D01*
X192943015Y-195055521D02*
X193038253Y-194960282D01*
X193038253Y-194960282D02*
X193133491Y-194769806D01*
X193133491Y-194769806D02*
X193133491Y-194198378D01*
X193133491Y-194198378D02*
X193038253Y-194007901D01*
X193038253Y-194007901D02*
X192943015Y-193912663D01*
X192943015Y-193912663D02*
X192752539Y-193817425D01*
X192752539Y-193817425D02*
X192371586Y-193817425D01*
X192371586Y-193817425D02*
X192181110Y-193912663D01*
X190466824Y-193817425D02*
X190466824Y-195150759D01*
X191323967Y-193817425D02*
X191323967Y-194865044D01*
X191323967Y-194865044D02*
X191228729Y-195055521D01*
X191228729Y-195055521D02*
X191038253Y-195150759D01*
X191038253Y-195150759D02*
X190752538Y-195150759D01*
X190752538Y-195150759D02*
X190562062Y-195055521D01*
X190562062Y-195055521D02*
X190466824Y-194960282D01*
X189514443Y-195150759D02*
X189514443Y-193817425D01*
X189514443Y-194198378D02*
X189419205Y-194007901D01*
X189419205Y-194007901D02*
X189323967Y-193912663D01*
X189323967Y-193912663D02*
X189133491Y-193817425D01*
X189133491Y-193817425D02*
X188943014Y-193817425D01*
X188276348Y-195150759D02*
X188276348Y-193817425D01*
X188276348Y-194198378D02*
X188181110Y-194007901D01*
X188181110Y-194007901D02*
X188085872Y-193912663D01*
X188085872Y-193912663D02*
X187895396Y-193817425D01*
X187895396Y-193817425D02*
X187704919Y-193817425D01*
X186276348Y-195055521D02*
X186466824Y-195150759D01*
X186466824Y-195150759D02*
X186847777Y-195150759D01*
X186847777Y-195150759D02*
X187038253Y-195055521D01*
X187038253Y-195055521D02*
X187133491Y-194865044D01*
X187133491Y-194865044D02*
X187133491Y-194103140D01*
X187133491Y-194103140D02*
X187038253Y-193912663D01*
X187038253Y-193912663D02*
X186847777Y-193817425D01*
X186847777Y-193817425D02*
X186466824Y-193817425D01*
X186466824Y-193817425D02*
X186276348Y-193912663D01*
X186276348Y-193912663D02*
X186181110Y-194103140D01*
X186181110Y-194103140D02*
X186181110Y-194293616D01*
X186181110Y-194293616D02*
X187133491Y-194484092D01*
X185323967Y-193817425D02*
X185323967Y-195150759D01*
X185323967Y-194007901D02*
X185228729Y-193912663D01*
X185228729Y-193912663D02*
X185038253Y-193817425D01*
X185038253Y-193817425D02*
X184752538Y-193817425D01*
X184752538Y-193817425D02*
X184562062Y-193912663D01*
X184562062Y-193912663D02*
X184466824Y-194103140D01*
X184466824Y-194103140D02*
X184466824Y-195150759D01*
X183800157Y-193817425D02*
X183038253Y-193817425D01*
X183514443Y-193150759D02*
X183514443Y-194865044D01*
X183514443Y-194865044D02*
X183419205Y-195055521D01*
X183419205Y-195055521D02*
X183228729Y-195150759D01*
X183228729Y-195150759D02*
X183038253Y-195150759D01*
X182371586Y-195150759D02*
X182371586Y-193150759D01*
X181228729Y-195150759D02*
X182085872Y-194007901D01*
X181228729Y-193150759D02*
X182371586Y-194293616D01*
X179704919Y-194103140D02*
X179419205Y-194198378D01*
X179419205Y-194198378D02*
X179323967Y-194293616D01*
X179323967Y-194293616D02*
X179228729Y-194484092D01*
X179228729Y-194484092D02*
X179228729Y-194769806D01*
X179228729Y-194769806D02*
X179323967Y-194960282D01*
X179323967Y-194960282D02*
X179419205Y-195055521D01*
X179419205Y-195055521D02*
X179609681Y-195150759D01*
X179609681Y-195150759D02*
X180371586Y-195150759D01*
X180371586Y-195150759D02*
X180371586Y-193150759D01*
X180371586Y-193150759D02*
X179704919Y-193150759D01*
X179704919Y-193150759D02*
X179514443Y-193245997D01*
X179514443Y-193245997D02*
X179419205Y-193341235D01*
X179419205Y-193341235D02*
X179323967Y-193531711D01*
X179323967Y-193531711D02*
X179323967Y-193722187D01*
X179323967Y-193722187D02*
X179419205Y-193912663D01*
X179419205Y-193912663D02*
X179514443Y-194007901D01*
X179514443Y-194007901D02*
X179704919Y-194103140D01*
X179704919Y-194103140D02*
X180371586Y-194103140D01*
D11*
%TO.C,D4*%
X79854836Y-136629151D02*
X80246095Y-136712316D01*
X80246095Y-136712316D02*
X80360447Y-136174335D01*
X80246095Y-136712316D02*
X80131744Y-137250297D01*
X80246095Y-136712316D02*
X80916149Y-136445804D01*
X80916149Y-136445804D02*
X80749819Y-137228322D01*
X80832984Y-136837063D02*
X81322058Y-136941019D01*
X80749819Y-137228322D02*
X80246095Y-136712316D01*
%TO.C,D25*%
X280630304Y-120454064D02*
X281014808Y-120343809D01*
X281014808Y-120343809D02*
X280863208Y-119815115D01*
X281014808Y-120343809D02*
X281166409Y-120872503D01*
X281014808Y-120343809D02*
X281481310Y-119793922D01*
X281481310Y-119793922D02*
X281701820Y-120562931D01*
X281591565Y-120178427D02*
X282072196Y-120040608D01*
X281701820Y-120562931D02*
X281014808Y-120343809D01*
%TO.C,D12*%
X130861462Y-110521547D02*
X131237339Y-110658355D01*
X131237339Y-110658355D02*
X131425450Y-110141524D01*
X131237339Y-110658355D02*
X131049228Y-111175186D01*
X131237339Y-110658355D02*
X131937962Y-110487690D01*
X131937962Y-110487690D02*
X131664346Y-111239444D01*
X131801154Y-110863567D02*
X132271000Y-111034577D01*
X131664346Y-111239444D02*
X131237339Y-110658355D01*
%TO.C,D33*%
X238786390Y-181691231D02*
X239162267Y-181554423D01*
X239162267Y-181554423D02*
X238974156Y-181037592D01*
X239162267Y-181554423D02*
X239350378Y-182071254D01*
X239162267Y-181554423D02*
X239589274Y-180973334D01*
X239589274Y-180973334D02*
X239862890Y-181725088D01*
X239726082Y-181349211D02*
X240195928Y-181178201D01*
X239862890Y-181725088D02*
X239162267Y-181554423D01*
%TO.C,D31*%
X239095725Y-126842656D02*
X239471602Y-126705848D01*
X239471602Y-126705848D02*
X239283491Y-126189017D01*
X239471602Y-126705848D02*
X239659713Y-127222679D01*
X239471602Y-126705848D02*
X239898609Y-126124759D01*
X239898609Y-126124759D02*
X240172225Y-126876513D01*
X240035417Y-126500636D02*
X240505263Y-126329626D01*
X240172225Y-126876513D02*
X239471602Y-126705848D01*
%TO.C,D16*%
X146753902Y-181178199D02*
X147129779Y-181315007D01*
X147129779Y-181315007D02*
X147317890Y-180798176D01*
X147129779Y-181315007D02*
X146941668Y-181831838D01*
X147129779Y-181315007D02*
X147830402Y-181144342D01*
X147830402Y-181144342D02*
X147556786Y-181896096D01*
X147693594Y-181520219D02*
X148163440Y-181691229D01*
X147556786Y-181896096D02*
X147129779Y-181315007D01*
%TO.C,D3*%
X44763076Y-107885333D02*
X45159183Y-107941002D01*
X45159183Y-107941002D02*
X45235728Y-107396355D01*
X45159183Y-107941002D02*
X45082638Y-108485650D01*
X45159183Y-107941002D02*
X45809013Y-107628399D01*
X45809013Y-107628399D02*
X45697675Y-108420614D01*
X45753344Y-108024506D02*
X46248478Y-108094093D01*
X45697675Y-108420614D02*
X45159183Y-107941002D01*
%TO.C,D14*%
X146444562Y-126329629D02*
X146820439Y-126466437D01*
X146820439Y-126466437D02*
X147008550Y-125949606D01*
X146820439Y-126466437D02*
X146632328Y-126983268D01*
X146820439Y-126466437D02*
X147521062Y-126295772D01*
X147521062Y-126295772D02*
X147247446Y-127047526D01*
X147384254Y-126671649D02*
X147854100Y-126842659D01*
X147247446Y-127047526D02*
X146820439Y-126466437D01*
%TO.C,D34*%
X220823131Y-191136717D02*
X221150792Y-190907287D01*
X221150792Y-190907287D02*
X220835325Y-190456753D01*
X221150792Y-190907287D02*
X221466259Y-191357820D01*
X221150792Y-190907287D02*
X221412852Y-190235480D01*
X221412852Y-190235480D02*
X221871714Y-190890802D01*
X221642283Y-190563141D02*
X222051859Y-190276353D01*
X221871714Y-190890802D02*
X221150792Y-190907287D01*
%TO.C,D21*%
X305627766Y-136941023D02*
X306019025Y-136857858D01*
X306019025Y-136857858D02*
X305904674Y-136319877D01*
X306019025Y-136857858D02*
X306133377Y-137395839D01*
X306019025Y-136857858D02*
X306522749Y-136341852D01*
X306522749Y-136341852D02*
X306689079Y-137124370D01*
X306605914Y-136733111D02*
X307094988Y-136629155D01*
X306689079Y-137124370D02*
X306019025Y-136857858D01*
%TO.C,D29*%
X254678819Y-111034583D02*
X255054696Y-110897775D01*
X255054696Y-110897775D02*
X254866585Y-110380944D01*
X255054696Y-110897775D02*
X255242807Y-111414606D01*
X255054696Y-110897775D02*
X255481703Y-110316686D01*
X255481703Y-110316686D02*
X255755319Y-111068440D01*
X255618511Y-110692563D02*
X256088357Y-110521553D01*
X255755319Y-111068440D02*
X255054696Y-110897775D01*
%TO.C,D2*%
X62302060Y-119968882D02*
X62698167Y-120024551D01*
X62698167Y-120024551D02*
X62774712Y-119479904D01*
X62698167Y-120024551D02*
X62621622Y-120569199D01*
X62698167Y-120024551D02*
X63347997Y-119711948D01*
X63347997Y-119711948D02*
X63236659Y-120504163D01*
X63292328Y-120108055D02*
X63787462Y-120177642D01*
X63236659Y-120504163D02*
X62698167Y-120024551D01*
%TO.C,D11*%
X124345981Y-128422696D02*
X124721858Y-128559504D01*
X124721858Y-128559504D02*
X124909969Y-128042673D01*
X124721858Y-128559504D02*
X124533747Y-129076335D01*
X124721858Y-128559504D02*
X125422481Y-128388839D01*
X125422481Y-128388839D02*
X125148865Y-129140593D01*
X125285673Y-128764716D02*
X125755519Y-128935726D01*
X125148865Y-129140593D02*
X124721858Y-128559504D01*
%TO.C,D18*%
X325813604Y-139042252D02*
X326209711Y-138986583D01*
X326209711Y-138986583D02*
X326133166Y-138441935D01*
X326209711Y-138986583D02*
X326286256Y-139531230D01*
X326209711Y-138986583D02*
X326748203Y-138506971D01*
X326748203Y-138506971D02*
X326859541Y-139299186D01*
X326803872Y-138903079D02*
X327299006Y-138833492D01*
X326859541Y-139299186D02*
X326209711Y-138986583D01*
%TO.C,D20*%
X340701342Y-108094090D02*
X341097449Y-108038421D01*
X341097449Y-108038421D02*
X341020904Y-107493773D01*
X341097449Y-108038421D02*
X341173994Y-108583068D01*
X341097449Y-108038421D02*
X341635941Y-107558809D01*
X341635941Y-107558809D02*
X341747279Y-108351024D01*
X341691610Y-107954917D02*
X342186744Y-107885330D01*
X341747279Y-108351024D02*
X341097449Y-108038421D01*
%TO.C,D23*%
X297706332Y-99673597D02*
X298097591Y-99590432D01*
X298097591Y-99590432D02*
X297983240Y-99052451D01*
X298097591Y-99590432D02*
X298211943Y-100128413D01*
X298097591Y-99590432D02*
X298601315Y-99074426D01*
X298601315Y-99074426D02*
X298767645Y-99856944D01*
X298684480Y-99465685D02*
X299173554Y-99361729D01*
X298767645Y-99856944D02*
X298097591Y-99590432D01*
%TO.C,D24*%
X285881197Y-138766094D02*
X286265701Y-138655839D01*
X286265701Y-138655839D02*
X286114101Y-138127145D01*
X286265701Y-138655839D02*
X286417302Y-139184533D01*
X286265701Y-138655839D02*
X286732203Y-138105952D01*
X286732203Y-138105952D02*
X286952713Y-138874961D01*
X286842458Y-138490457D02*
X287323089Y-138352638D01*
X286952713Y-138874961D02*
X286265701Y-138655839D01*
%TO.C,D10*%
X117830492Y-146323840D02*
X118206369Y-146460648D01*
X118206369Y-146460648D02*
X118394480Y-145943817D01*
X118206369Y-146460648D02*
X118018258Y-146977479D01*
X118206369Y-146460648D02*
X118906992Y-146289983D01*
X118906992Y-146289983D02*
X118633376Y-147041737D01*
X118770184Y-146665860D02*
X119240030Y-146836870D01*
X118633376Y-147041737D02*
X118206369Y-146460648D01*
%TO.C,D1*%
X59650814Y-138833496D02*
X60046921Y-138889165D01*
X60046921Y-138889165D02*
X60123466Y-138344518D01*
X60046921Y-138889165D02*
X59970376Y-139433813D01*
X60046921Y-138889165D02*
X60696751Y-138576562D01*
X60696751Y-138576562D02*
X60585413Y-139368777D01*
X60641082Y-138972669D02*
X61136216Y-139042256D01*
X60585413Y-139368777D02*
X60046921Y-138889165D01*
%TO.C,D5*%
X83815557Y-117995442D02*
X84206816Y-118078607D01*
X84206816Y-118078607D02*
X84321168Y-117540626D01*
X84206816Y-118078607D02*
X84092465Y-118616588D01*
X84206816Y-118078607D02*
X84876870Y-117812095D01*
X84876870Y-117812095D02*
X84710540Y-118594613D01*
X84793705Y-118203354D02*
X85282779Y-118307310D01*
X84710540Y-118594613D02*
X84206816Y-118078607D01*
%TO.C,D9*%
X110128525Y-101728574D02*
X110513029Y-101838829D01*
X110513029Y-101838829D02*
X110664630Y-101310135D01*
X110513029Y-101838829D02*
X110361429Y-102367523D01*
X110513029Y-101838829D02*
X111200041Y-101619707D01*
X111200041Y-101619707D02*
X110979531Y-102388716D01*
X111089786Y-102004211D02*
X111570417Y-102142030D01*
X110979531Y-102388716D02*
X110513029Y-101838829D01*
%TO.C,D28*%
X261194308Y-128935725D02*
X261570185Y-128798917D01*
X261570185Y-128798917D02*
X261382074Y-128282086D01*
X261570185Y-128798917D02*
X261758296Y-129315748D01*
X261570185Y-128798917D02*
X261997192Y-128217828D01*
X261997192Y-128217828D02*
X262270808Y-128969582D01*
X262134000Y-128593705D02*
X262603846Y-128422695D01*
X262270808Y-128969582D02*
X261570185Y-128798917D01*
%TO.C,D26*%
X275379411Y-102142028D02*
X275763915Y-102031773D01*
X275763915Y-102031773D02*
X275612315Y-101503079D01*
X275763915Y-102031773D02*
X275915516Y-102560467D01*
X275763915Y-102031773D02*
X276230417Y-101481886D01*
X276230417Y-101481886D02*
X276450927Y-102250895D01*
X276340672Y-101866391D02*
X276821303Y-101728572D01*
X276450927Y-102250895D02*
X275763915Y-102031773D01*
%TO.C,D15*%
X152960049Y-108428485D02*
X153335926Y-108565293D01*
X153335926Y-108565293D02*
X153524037Y-108048462D01*
X153335926Y-108565293D02*
X153147815Y-109082124D01*
X153335926Y-108565293D02*
X154036549Y-108394628D01*
X154036549Y-108394628D02*
X153762933Y-109146382D01*
X153899741Y-108770505D02*
X154369587Y-108941515D01*
X153762933Y-109146382D02*
X153335926Y-108565293D01*
%TO.C,D27*%
X267709788Y-146836872D02*
X268085665Y-146700064D01*
X268085665Y-146700064D02*
X267897554Y-146183233D01*
X268085665Y-146700064D02*
X268273776Y-147216895D01*
X268085665Y-146700064D02*
X268512672Y-146118975D01*
X268512672Y-146118975D02*
X268786288Y-146870729D01*
X268649480Y-146494852D02*
X269119326Y-146323842D01*
X268786288Y-146870729D02*
X268085665Y-146700064D01*
%TO.C,D17*%
X164897967Y-190276347D02*
X165225628Y-190505777D01*
X165225628Y-190505777D02*
X165541095Y-190055244D01*
X165225628Y-190505777D02*
X164910161Y-190956311D01*
X165225628Y-190505777D02*
X165946550Y-190522262D01*
X165946550Y-190522262D02*
X165487688Y-191177584D01*
X165717119Y-190849923D02*
X166126695Y-191136711D01*
X165487688Y-191177584D02*
X165225628Y-190505777D01*
%TO.C,D32*%
X232580246Y-108941511D02*
X232956123Y-108804703D01*
X232956123Y-108804703D02*
X232768012Y-108287872D01*
X232956123Y-108804703D02*
X233144234Y-109321534D01*
X232956123Y-108804703D02*
X233383130Y-108223614D01*
X233383130Y-108223614D02*
X233656746Y-108975368D01*
X233519938Y-108599491D02*
X233989784Y-108428481D01*
X233656746Y-108975368D02*
X232956123Y-108804703D01*
%TO.C,D8*%
X104877628Y-120040604D02*
X105262132Y-120150859D01*
X105262132Y-120150859D02*
X105413733Y-119622165D01*
X105262132Y-120150859D02*
X105110532Y-120679553D01*
X105262132Y-120150859D02*
X105949144Y-119931737D01*
X105949144Y-119931737D02*
X105728634Y-120700746D01*
X105838889Y-120316241D02*
X106319520Y-120454060D01*
X105728634Y-120700746D02*
X105262132Y-120150859D01*
%TO.C,D30*%
X245611210Y-144743799D02*
X245987087Y-144606991D01*
X245987087Y-144606991D02*
X245798976Y-144090160D01*
X245987087Y-144606991D02*
X246175198Y-145123822D01*
X245987087Y-144606991D02*
X246414094Y-144025902D01*
X246414094Y-144025902D02*
X246687710Y-144777656D01*
X246550902Y-144401779D02*
X247020748Y-144230769D01*
X246687710Y-144777656D02*
X245987087Y-144606991D01*
%TO.C,D7*%
X99626732Y-138352639D02*
X100011236Y-138462894D01*
X100011236Y-138462894D02*
X100162837Y-137934200D01*
X100011236Y-138462894D02*
X99859636Y-138991588D01*
X100011236Y-138462894D02*
X100698248Y-138243772D01*
X100698248Y-138243772D02*
X100477738Y-139012781D01*
X100587993Y-138628276D02*
X101068624Y-138766095D01*
X100477738Y-139012781D02*
X100011236Y-138462894D01*
%TO.C,D6*%
X87776272Y-99361731D02*
X88167531Y-99444896D01*
X88167531Y-99444896D02*
X88281883Y-98906915D01*
X88167531Y-99444896D02*
X88053180Y-99982877D01*
X88167531Y-99444896D02*
X88837585Y-99178384D01*
X88837585Y-99178384D02*
X88671255Y-99960902D01*
X88754420Y-99569643D02*
X89243494Y-99673599D01*
X88671255Y-99960902D02*
X88167531Y-99444896D01*
%TO.C,D13*%
X139929077Y-144230774D02*
X140304954Y-144367582D01*
X140304954Y-144367582D02*
X140493065Y-143850751D01*
X140304954Y-144367582D02*
X140116843Y-144884413D01*
X140304954Y-144367582D02*
X141005577Y-144196917D01*
X141005577Y-144196917D02*
X140731961Y-144948671D01*
X140868769Y-144572794D02*
X141338615Y-144743804D01*
X140731961Y-144948671D02*
X140304954Y-144367582D01*
%TO.C,D22*%
X301667052Y-118307310D02*
X302058311Y-118224145D01*
X302058311Y-118224145D02*
X301943960Y-117686164D01*
X302058311Y-118224145D02*
X302172663Y-118762126D01*
X302058311Y-118224145D02*
X302562035Y-117708139D01*
X302562035Y-117708139D02*
X302728365Y-118490657D01*
X302645200Y-118099398D02*
X303134274Y-117995442D01*
X302728365Y-118490657D02*
X302058311Y-118224145D01*
%TO.C,D19*%
X323162363Y-120177642D02*
X323558470Y-120121973D01*
X323558470Y-120121973D02*
X323481925Y-119577325D01*
X323558470Y-120121973D02*
X323635015Y-120666620D01*
X323558470Y-120121973D02*
X324096962Y-119642361D01*
X324096962Y-119642361D02*
X324208300Y-120434576D01*
X324152631Y-120038469D02*
X324647765Y-119968882D01*
X324208300Y-120434576D02*
X323558470Y-120121973D01*
%TD*%
D12*
%TO.C,MCU1*%
X185854909Y-102917674D03*
D13*
X185854909Y-105457674D03*
X185854909Y-107997674D03*
X185854909Y-110537674D03*
X185854909Y-113077674D03*
X185854909Y-115617674D03*
X185854909Y-118157674D03*
X185854909Y-120697674D03*
X185854909Y-123237674D03*
X185854909Y-125777674D03*
X185854909Y-128317674D03*
X185854909Y-130857674D03*
X201094909Y-102917674D03*
X201094909Y-105457674D03*
X201094909Y-107997674D03*
X201094909Y-110537674D03*
X201094909Y-113077674D03*
X201094909Y-115617674D03*
X201094909Y-118157674D03*
X201094909Y-120697674D03*
X201094909Y-123237674D03*
X201094909Y-125777674D03*
X201094909Y-128317674D03*
X201094909Y-130857674D03*
%TD*%
M02*
