%TF.GenerationSoftware,KiCad,Pcbnew,7.0.1-3b83917a11~172~ubuntu22.04.1*%
%TF.CreationDate,2023-04-10T14:49:45+02:00*%
%TF.ProjectId,koala-v1_ne,6b6f616c-612d-4763-915f-6e652e6b6963,v1.0.0*%
%TF.SameCoordinates,Original*%
%TF.FileFunction,Paste,Top*%
%TF.FilePolarity,Positive*%
%FSLAX46Y46*%
G04 Gerber Fmt 4.6, Leading zero omitted, Abs format (unit mm)*
G04 Created by KiCad (PCBNEW 7.0.1-3b83917a11~172~ubuntu22.04.1) date 2023-04-10 14:49:45*
%MOMM*%
%LPD*%
G01*
G04 APERTURE LIST*
G04 Aperture macros list*
%AMRotRect*
0 Rectangle, with rotation*
0 The origin of the aperture is its center*
0 $1 length*
0 $2 width*
0 $3 Rotation angle, in degrees counterclockwise*
0 Add horizontal line*
21,1,$1,$2,0,0,$3*%
G04 Aperture macros list end*
%ADD10RotRect,0.900000X1.200000X348.000000*%
%ADD11RotRect,0.900000X1.200000X16.000000*%
%ADD12RotRect,0.900000X1.200000X340.000000*%
%ADD13RotRect,0.900000X1.200000X20.000000*%
%ADD14RotRect,0.900000X1.200000X352.000000*%
%ADD15RotRect,0.900000X1.200000X35.000000*%
%ADD16RotRect,0.900000X1.200000X12.000000*%
%ADD17RotRect,0.900000X1.200000X8.000000*%
%ADD18RotRect,0.900000X1.200000X344.000000*%
%ADD19RotRect,0.900000X1.200000X325.000000*%
G04 APERTURE END LIST*
D10*
%TO.C,D4*%
X78974503Y-136442031D03*
X82202391Y-137128139D03*
%TD*%
D11*
%TO.C,D25*%
X279765168Y-120702138D03*
X282937332Y-119792534D03*
%TD*%
D12*
%TO.C,D12*%
X130015738Y-110213729D03*
X133116724Y-111342395D03*
%TD*%
D13*
%TO.C,D33*%
X237940666Y-181999049D03*
X241041652Y-180870383D03*
%TD*%
%TO.C,D31*%
X238250001Y-127150474D03*
X241350987Y-126021808D03*
%TD*%
D12*
%TO.C,D16*%
X145908178Y-180870381D03*
X149009164Y-181999047D03*
%TD*%
D14*
%TO.C,D3*%
X43871835Y-107760077D03*
X47139719Y-108219349D03*
%TD*%
D12*
%TO.C,D14*%
X145598838Y-126021811D03*
X148699824Y-127150477D03*
%TD*%
D15*
%TO.C,D34*%
X220085894Y-191652936D03*
X222789096Y-189760134D03*
%TD*%
D16*
%TO.C,D21*%
X304747433Y-137128143D03*
X307975321Y-136442035D03*
%TD*%
D13*
%TO.C,D29*%
X253833095Y-111342401D03*
X256934081Y-110213735D03*
%TD*%
D14*
%TO.C,D2*%
X61410819Y-119843626D03*
X64678703Y-120302898D03*
%TD*%
D12*
%TO.C,D11*%
X123500257Y-128114878D03*
X126601243Y-129243544D03*
%TD*%
D17*
%TO.C,D18*%
X324922363Y-139167508D03*
X328190247Y-138708236D03*
%TD*%
%TO.C,D20*%
X339810101Y-108219346D03*
X343077985Y-107760074D03*
%TD*%
D16*
%TO.C,D23*%
X296825999Y-99860717D03*
X300053887Y-99174609D03*
%TD*%
D11*
%TO.C,D24*%
X285016061Y-139014168D03*
X288188225Y-138104564D03*
%TD*%
D12*
%TO.C,D10*%
X116984768Y-146016022D03*
X120085754Y-147144688D03*
%TD*%
D14*
%TO.C,D1*%
X58759573Y-138708240D03*
X62027457Y-139167512D03*
%TD*%
D10*
%TO.C,D5*%
X82935224Y-117808322D03*
X86163112Y-118494430D03*
%TD*%
D18*
%TO.C,D9*%
X109263389Y-101480500D03*
X112435553Y-102390104D03*
%TD*%
D13*
%TO.C,D28*%
X260348584Y-129243543D03*
X263449570Y-128114877D03*
%TD*%
D11*
%TO.C,D26*%
X274514275Y-102390102D03*
X277686439Y-101480498D03*
%TD*%
D12*
%TO.C,D15*%
X152114325Y-108120667D03*
X155215311Y-109249333D03*
%TD*%
D13*
%TO.C,D27*%
X266864064Y-147144690D03*
X269965050Y-146016024D03*
%TD*%
D19*
%TO.C,D17*%
X164160730Y-189760128D03*
X166863932Y-191652930D03*
%TD*%
D13*
%TO.C,D32*%
X231734522Y-109249329D03*
X234835508Y-108120663D03*
%TD*%
D18*
%TO.C,D8*%
X104012492Y-119792530D03*
X107184656Y-120702134D03*
%TD*%
D13*
%TO.C,D30*%
X244765486Y-145051617D03*
X247866472Y-143922951D03*
%TD*%
D18*
%TO.C,D7*%
X98761596Y-138104565D03*
X101933760Y-139014169D03*
%TD*%
D10*
%TO.C,D6*%
X86895939Y-99174611D03*
X90123827Y-99860719D03*
%TD*%
D12*
%TO.C,D13*%
X139083353Y-143922956D03*
X142184339Y-145051622D03*
%TD*%
D16*
%TO.C,D22*%
X300786719Y-118494430D03*
X304014607Y-117808322D03*
%TD*%
D17*
%TO.C,D19*%
X322271122Y-120302898D03*
X325539006Y-119843626D03*
%TD*%
M02*
