0
SECTION
2
HEADER
9
$INSUNITS
70
4
0
ENDSEC
0
SECTION
2
TABLES
0
TABLE
2
LTYPE
0
LTYPE
72
65
70
64
2
CONTINUOUS
3
______
73
0
40
0
0
ENDTAB
0
TABLE
2
LAYER
0
ENDTAB
0
ENDSEC
0
SECTION
2
ENTITIES
0
LINE
8
0
10
9.1533622
20
-143.8305739
11
3.243582
21
-112.5241991
0
LINE
8
0
10
3.4300022
20
-110.795517
11
11.2540695
21
-92.3631696
0
LINE
8
0
10
14.1951482
20
-90.5407416
11
56.7720738
21
-93.0937474
0
LINE
8
0
10
57.6004113
20
-93.2627476
11
79.3421643
21
-101.0180505
0
LINE
8
0
10
79.7442489
20
-101.1956649
11
118.2182038
21
-121.6819241
0
LINE
8
0
10
118.5289469
20
-121.8724747
11
136.4859953
21
-134.4461353
0
LINE
8
0
10
138.2067246
20
-134.9886792
11
180.4125406
21
-134.9886792
0
LINE
8
0
10
182.1332699
20
-134.4461353
11
200.0903183
21
-121.8724747
0
LINE
8
0
10
200.4010614
20
-121.6819241
11
238.8750163
21
-101.1956649
0
LINE
8
0
10
239.2771009
20
-101.0180505
11
261.0188539
21
-93.2627476
0
LINE
8
0
10
261.8471914
20
-93.0937474
11
304.424117
21
-90.5407416
0
LINE
8
0
10
307.3651957
20
-92.3631696
11
315.189263
21
-110.795517
0
LINE
8
0
10
315.3756832
20
-112.5241991
11
309.465903
21
-143.8305739
0
LINE
8
0
10
307.7335531
20
-146.0167759
11
287.0335331
21
-155.1912103
0
LINE
8
0
10
286.2647448
20
-155.4150616
11
269.30261
21
-157.9697612
0
LINE
8
0
10
268.0905503
20
-158.4366644
11
237.6038493
21
-178.6688077
0
LINE
8
0
10
236.4544591
20
-180.1131026
11
232.9455979
21
-189.450102
0
LINE
8
0
10
233.2963884
20
-192.2261755
11
241.2394565
21
-203.5700524
0
LINE
8
0
10
240.4944717
20
-207.7539994
11
225.997314
21
-217.8326733
0
LINE
8
0
10
225.4116521
20
-218.3675282
11
214.2625526
21
-231.6545075
0
LINE
8
0
10
210.0360565
20
-232.024278
11
195.447792
21
-219.7832706
0
LINE
8
0
10
193.6717911
20
-219.0852754
11
170.9107637
21
-217.9278096
0
LINE
8
0
10
170.7584018
20
-217.9239381
11
147.8608633
21
-217.9239381
0
LINE
8
0
10
147.7085014
20
-217.9278096
11
124.9474741
21
-219.0852754
0
LINE
8
0
10
123.1714732
20
-219.7832706
11
108.5832087
21
-232.024278
0
LINE
8
0
10
104.3567126
20
-231.6545075
11
93.2076131
21
-218.3675282
0
LINE
8
0
10
92.6219512
20
-217.8326733
11
78.1247935
21
-207.7539994
0
LINE
8
0
10
77.3798087
20
-203.5700524
11
85.3228768
21
-192.2261755
0
LINE
8
0
10
85.6736673
20
-189.450102
11
82.1648061
21
-180.1131026
0
LINE
8
0
10
81.0154159
20
-178.6688077
11
50.5287149
21
-158.4366644
0
LINE
8
0
10
49.3166552
20
-157.9697612
11
32.3545204
21
-155.4150616
0
LINE
8
0
10
31.5857321
20
-155.1912103
11
10.8857121
21
-146.0167759
0
ARC
8
0
10
6.1915169
20
-111.9677102
40
3
50
157.0000025
51
190.6900687
0
ARC
8
0
10
14.0155841
20
-93.5353629
40
3
50
86.5685273
51
157.0000025
0
ARC
8
0
10
56.5925097
20
-96.0883687
40
3
50
70.3686367
51
86.5685273
0
ARC
8
0
10
78.3342627
20
-103.8436716
40
3
50
61.966003
51
70.3686367
0
ARC
8
0
10
116.8082176
20
-124.3299308
40
3
50
55.0000003
51
61.966003
0
ARC
8
0
10
138.2067246
20
-131.9886792
40
3
50
235.0000003
51
270
0
ARC
8
0
10
180.4125406
20
-131.9886792
40
3
50
270
51
304.9999997
0
ARC
8
0
10
201.8110476
20
-124.3299308
40
3
50
118.033997
51
124.9999997
0
ARC
8
0
10
240.2850025
20
-103.8436716
40
3
50
109.6313633
51
118.033997
0
ARC
8
0
10
262.0267555
20
-96.0883687
40
3
50
93.4314727
51
109.6313633
0
ARC
8
0
10
304.6036811
20
-93.5353629
40
3
50
22.9999975
51
93.4314727
0
ARC
8
0
10
312.4277483
20
-111.9677102
40
3
50
349.3099313
51
22.9999975
0
ARC
8
0
10
306.5179681
20
-143.2740851
40
3
50
293.903347
51
349.3099313
0
ARC
8
0
10
285.8179482
20
-152.4485194
40
3
50
278.5650511
51
293.903347
0
ARC
8
0
10
269.7494066
20
-160.9363034
40
3
50
98.5650511
51
123.5697774
0
ARC
8
0
10
239.2627056
20
-181.1684468
40
3
50
123.5697774
51
159.4036881
0
ARC
8
0
10
235.7538445
20
-190.5054462
40
3
50
159.4036881
51
214.9999997
0
ARC
8
0
10
238.7820003
20
-205.2907817
40
3
50
304.8076913
51
34.9999997
0
ARC
8
0
10
227.7097853
20
-220.295891
40
3
50
124.8076913
51
139.9999988
0
ARC
8
0
10
211.9644193
20
-229.7261447
40
3
50
229.9999988
51
319.9999988
0
ARC
8
0
10
193.5194292
20
-222.0814039
40
3
50
49.9999988
51
87.0888497
0
ARC
8
0
10
170.7584018
20
-220.9239381
40
3
50
87.0888497
51
90
0
ARC
8
0
10
147.8608633
20
-220.9239381
40
3
50
90
51
92.9111503
0
ARC
8
0
10
125.099836
20
-222.0814039
40
3
50
92.9111503
51
130.0000012
0
ARC
8
0
10
106.6548459
20
-229.7261447
40
3
50
220.0000012
51
310.0000012
0
ARC
8
0
10
90.9094799
20
-220.295891
40
3
50
40.0000012
51
55.1923087
0
ARC
8
0
10
79.8372649
20
-205.2907817
40
3
50
145.0000003
51
235.1923087
0
ARC
8
0
10
82.8654207
20
-190.5054462
40
3
50
325.0000003
51
20.5963119
0
ARC
8
0
10
79.3565596
20
-181.1684468
40
3
50
20.5963119
51
56.4302226
0
ARC
8
0
10
48.8698586
20
-160.9363034
40
3
50
56.4302226
51
81.4349489
0
ARC
8
0
10
32.801317
20
-152.4485194
40
3
50
246.096653
51
261.4349489
0
ARC
8
0
10
12.1012971
20
-143.2740851
40
3
50
190.6900687
51
246.096653
0
ENDSEC
0
EOF