0
SECTION
2
HEADER
9
$INSUNITS
70
4
0
ENDSEC
0
SECTION
2
TABLES
0
TABLE
2
LTYPE
0
LTYPE
72
65
70
64
2
CONTINUOUS
3
______
73
0
40
0
0
ENDTAB
0
TABLE
2
LAYER
0
ENDTAB
0
ENDSEC
0
SECTION
2
ENTITIES
0
LINE
8
0
10
9.1533622
20
-143.8305739
11
3.243582
21
-112.5241991
0
LINE
8
0
10
3.4300022
20
-110.795517
11
11.2540695
21
-92.3631696
0
LINE
8
0
10
14.1951482
20
-90.5407416
11
56.7720738
21
-93.0937474
0
LINE
8
0
10
57.6004113
20
-93.2627476
11
79.3421643
21
-101.0180505
0
LINE
8
0
10
79.7442489
20
-101.1956649
11
118.2182038
21
-121.6819241
0
LINE
8
0
10
118.5289469
20
-121.8724747
11
136.4859953
21
-134.4461353
0
LINE
8
0
10
138.2067246
20
-134.9886792
11
180.4125406
21
-134.9886792
0
LINE
8
0
10
182.1332699
20
-134.4461353
11
200.0903183
21
-121.8724747
0
LINE
8
0
10
200.4010614
20
-121.6819241
11
238.8750163
21
-101.1956649
0
LINE
8
0
10
239.2771009
20
-101.0180505
11
261.0188539
21
-93.2627476
0
LINE
8
0
10
261.8471914
20
-93.0937474
11
304.424117
21
-90.5407416
0
LINE
8
0
10
307.3651957
20
-92.3631696
11
315.189263
21
-110.795517
0
LINE
8
0
10
315.3756832
20
-112.5241991
11
309.465903
21
-143.8305739
0
LINE
8
0
10
307.7335531
20
-146.0167759
11
287.0335331
21
-155.1912103
0
LINE
8
0
10
286.2647448
20
-155.4150616
11
269.30261
21
-157.9697612
0
LINE
8
0
10
268.0905503
20
-158.4366644
11
237.6038493
21
-178.6688077
0
LINE
8
0
10
236.4544591
20
-180.1131026
11
232.9455979
21
-189.450102
0
LINE
8
0
10
233.2963884
20
-192.2261755
11
241.2394565
21
-203.5700524
0
LINE
8
0
10
240.4944717
20
-207.7539994
11
225.997314
21
-217.8326733
0
LINE
8
0
10
225.4116521
20
-218.3675282
11
214.2625526
21
-231.6545075
0
LINE
8
0
10
210.0360565
20
-232.024278
11
195.447792
21
-219.7832706
0
LINE
8
0
10
193.6717911
20
-219.0852754
11
170.9107637
21
-217.9278096
0
LINE
8
0
10
170.7584018
20
-217.9239381
11
147.8608633
21
-217.9239381
0
LINE
8
0
10
147.7085014
20
-217.9278096
11
124.9474741
21
-219.0852754
0
LINE
8
0
10
123.1714732
20
-219.7832706
11
108.5832087
21
-232.024278
0
LINE
8
0
10
104.3567126
20
-231.6545075
11
93.2076131
21
-218.3675282
0
LINE
8
0
10
92.6219512
20
-217.8326733
11
78.1247935
21
-207.7539994
0
LINE
8
0
10
77.3798087
20
-203.5700524
11
85.3228768
21
-192.2261755
0
LINE
8
0
10
85.6736673
20
-189.450102
11
82.1648061
21
-180.1131026
0
LINE
8
0
10
81.0154159
20
-178.6688077
11
50.5287149
21
-158.4366644
0
LINE
8
0
10
49.3166552
20
-157.9697612
11
32.3545204
21
-155.4150616
0
LINE
8
0
10
31.5857321
20
-155.1912103
11
10.8857121
21
-146.0167759
0
ARC
8
0
10
6.1915169
20
-111.9677102
40
3
50
157.0000025
51
190.6900687
0
ARC
8
0
10
14.0155841
20
-93.5353629
40
3
50
86.5685273
51
157.0000025
0
ARC
8
0
10
56.5925097
20
-96.0883687
40
3
50
70.3686367
51
86.5685273
0
ARC
8
0
10
78.3342627
20
-103.8436716
40
3
50
61.966003
51
70.3686367
0
ARC
8
0
10
116.8082176
20
-124.3299308
40
3
50
55.0000003
51
61.966003
0
ARC
8
0
10
138.2067246
20
-131.9886792
40
3
50
235.0000003
51
270
0
ARC
8
0
10
180.4125406
20
-131.9886792
40
3
50
270
51
304.9999997
0
ARC
8
0
10
201.8110476
20
-124.3299308
40
3
50
118.033997
51
124.9999997
0
ARC
8
0
10
240.2850025
20
-103.8436716
40
3
50
109.6313633
51
118.033997
0
ARC
8
0
10
262.0267555
20
-96.0883687
40
3
50
93.4314727
51
109.6313633
0
ARC
8
0
10
304.6036811
20
-93.5353629
40
3
50
22.9999975
51
93.4314727
0
ARC
8
0
10
312.4277483
20
-111.9677102
40
3
50
349.3099313
51
22.9999975
0
ARC
8
0
10
306.5179681
20
-143.2740851
40
3
50
293.903347
51
349.3099313
0
ARC
8
0
10
285.8179482
20
-152.4485194
40
3
50
278.5650511
51
293.903347
0
ARC
8
0
10
269.7494066
20
-160.9363034
40
3
50
98.5650511
51
123.5697774
0
ARC
8
0
10
239.2627056
20
-181.1684468
40
3
50
123.5697774
51
159.4036881
0
ARC
8
0
10
235.7538445
20
-190.5054462
40
3
50
159.4036881
51
214.9999997
0
ARC
8
0
10
238.7820003
20
-205.2907817
40
3
50
304.8076913
51
34.9999997
0
ARC
8
0
10
227.7097853
20
-220.295891
40
3
50
124.8076913
51
139.9999988
0
ARC
8
0
10
211.9644193
20
-229.7261447
40
3
50
229.9999988
51
319.9999988
0
ARC
8
0
10
193.5194292
20
-222.0814039
40
3
50
49.9999988
51
87.0888497
0
ARC
8
0
10
170.7584018
20
-220.9239381
40
3
50
87.0888497
51
90
0
ARC
8
0
10
147.8608633
20
-220.9239381
40
3
50
90
51
92.9111503
0
ARC
8
0
10
125.099836
20
-222.0814039
40
3
50
92.9111503
51
130.0000012
0
ARC
8
0
10
106.6548459
20
-229.7261447
40
3
50
220.0000012
51
310.0000012
0
ARC
8
0
10
90.9094799
20
-220.295891
40
3
50
40.0000012
51
55.1923087
0
ARC
8
0
10
79.8372649
20
-205.2907817
40
3
50
145.0000003
51
235.1923087
0
ARC
8
0
10
82.8654207
20
-190.5054462
40
3
50
325.0000003
51
20.5963119
0
ARC
8
0
10
79.3565596
20
-181.1684468
40
3
50
20.5963119
51
56.4302226
0
ARC
8
0
10
48.8698586
20
-160.9363034
40
3
50
56.4302226
51
81.4349489
0
ARC
8
0
10
32.801317
20
-152.4485194
40
3
50
246.096653
51
261.4349489
0
ARC
8
0
10
12.1012971
20
-143.2740851
40
3
50
190.6900687
51
246.096653
0
LINE
8
0
10
12.3958471
20
-144.1864994
11
29.4712121
21
-151.4345618
0
LINE
8
0
10
29.4712121
20
-151.4345618
11
36.7192745
21
-134.3591968
0
LINE
8
0
10
36.7192745
20
-134.3591968
11
19.6439095
21
-127.1111344
0
LINE
8
0
10
19.6439095
20
-127.1111344
11
12.3958471
21
-144.1864994
0
LINE
8
0
10
19.8392751
20
-126.6508819
11
36.9146401
21
-133.8989443
0
LINE
8
0
10
36.9146401
20
-133.8989443
11
44.1627025
21
-116.8235793
0
LINE
8
0
10
44.1627025
20
-116.8235793
11
27.0873375
21
-109.5755169
0
LINE
8
0
10
27.0873375
20
-109.5755169
11
19.8392751
21
-126.6508819
0
LINE
8
0
10
6.0253717
20
-110.4396452
11
23.1007367
21
-117.6877076
0
LINE
8
0
10
23.1007367
20
-117.6877076
11
30.3487991
21
-100.6123426
0
LINE
8
0
10
30.3487991
20
-100.6123426
11
13.2734341
21
-93.3642802
0
LINE
8
0
10
13.2734341
20
-93.3642802
11
6.0253717
21
-110.4396452
0
LINE
8
0
10
32.462993
20
-146.6210659
11
48.991164
21
-155.0425897
0
LINE
8
0
10
48.991164
20
-155.0425897
11
57.4126878
21
-138.5144187
0
LINE
8
0
10
57.4126878
20
-138.5144187
11
40.8845168
21
-130.0928949
0
LINE
8
0
10
40.8845168
20
-130.0928949
11
32.462993
21
-146.6210659
0
LINE
8
0
10
41.111512
20
-129.6473916
11
57.639683
21
-138.0689154
0
LINE
8
0
10
57.639683
20
-138.0689154
11
66.0612068
21
-121.5407444
0
LINE
8
0
10
66.0612068
20
-121.5407444
11
49.5330358
21
-113.1192206
0
LINE
8
0
10
49.5330358
20
-113.1192206
11
41.111512
21
-129.6473916
0
LINE
8
0
10
49.760031
20
-112.6737173
11
66.288202
21
-121.0952411
0
LINE
8
0
10
66.288202
20
-121.0952411
11
74.7097258
21
-104.5670701
0
LINE
8
0
10
74.7097258
20
-104.5670701
11
58.1815548
21
-96.1455463
0
LINE
8
0
10
58.1815548
20
-96.1455463
11
49.760031
21
-112.6737173
0
LINE
8
0
10
51.1426141
20
-152.7380793
11
67.0430676
21
-162.2920356
0
LINE
8
0
10
67.0430676
20
-162.2920356
11
76.5970239
21
-146.3915821
0
LINE
8
0
10
76.5970239
20
-146.3915821
11
60.6965704
21
-136.8376258
0
LINE
8
0
10
60.6965704
20
-136.8376258
11
51.1426141
21
-152.7380793
0
LINE
8
0
10
60.9540894
20
-136.4090422
11
76.8545429
21
-145.9629985
0
LINE
8
0
10
76.8545429
20
-145.9629985
11
86.4084992
21
-130.062545
0
LINE
8
0
10
86.4084992
20
-130.062545
11
70.5080457
21
-120.5085887
0
LINE
8
0
10
70.5080457
20
-120.5085887
11
60.9540894
21
-136.4090422
0
LINE
8
0
10
70.7655648
20
-120.0800051
11
86.6660183
21
-129.6339614
0
LINE
8
0
10
86.6660183
20
-129.6339614
11
96.2199746
21
-113.7335079
0
LINE
8
0
10
96.2199746
20
-113.7335079
11
80.3195211
21
-104.1795516
0
LINE
8
0
10
80.3195211
20
-104.1795516
11
70.7655648
21
-120.0800051
0
LINE
8
0
10
66.7368257
20
-164.4875912
11
81.9320962
21
-175.1274341
0
LINE
8
0
10
81.9320962
20
-175.1274341
11
92.5719391
21
-159.9321636
0
LINE
8
0
10
92.5719391
20
-159.9321636
11
77.3766686
21
-149.2923207
0
LINE
8
0
10
77.3766686
20
-149.2923207
11
66.7368257
21
-164.4875912
0
LINE
8
0
10
77.6634568
20
-148.8827448
11
92.8587273
21
-159.5225877
0
LINE
8
0
10
92.8587273
20
-159.5225877
11
103.4985702
21
-144.3273172
0
LINE
8
0
10
103.4985702
20
-144.3273172
11
88.3032997
21
-133.6874743
0
LINE
8
0
10
88.3032997
20
-133.6874743
11
77.6634568
21
-148.8827448
0
LINE
8
0
10
88.5900879
20
-133.2778983
11
103.7853584
21
-143.9177412
0
LINE
8
0
10
103.7853584
20
-143.9177412
11
114.4252013
21
-128.7224707
0
LINE
8
0
10
114.4252013
20
-128.7224707
11
99.2299308
21
-118.0826278
0
LINE
8
0
10
99.2299308
20
-118.0826278
11
88.5900879
21
-133.2778983
0
LINE
8
0
10
97.3654448
20
-155.7014984
11
112.5607153
21
-166.3413413
0
LINE
8
0
10
112.5607153
20
-166.3413413
11
123.2005582
21
-151.1460708
0
LINE
8
0
10
123.2005582
20
-151.1460708
11
108.0052877
21
-140.5062279
0
LINE
8
0
10
108.0052877
20
-140.5062279
11
97.3654448
21
-155.7014984
0
LINE
8
0
10
108.2920759
20
-140.0966519
11
123.4873464
21
-150.7364948
0
LINE
8
0
10
123.4873464
20
-150.7364948
11
134.1271893
21
-135.5412243
0
LINE
8
0
10
134.1271893
20
-135.5412243
11
118.9319188
21
-124.9013814
0
LINE
8
0
10
118.9319188
20
-124.9013814
11
108.2920759
21
-140.0966519
0
LINE
8
0
10
78.7869333
20
-205.4832255
11
93.9822038
21
-216.1230684
0
LINE
8
0
10
93.9822038
20
-216.1230684
11
104.6220467
21
-200.9277979
0
LINE
8
0
10
104.6220467
20
-200.9277979
11
89.4267762
21
-190.287955
0
LINE
8
0
10
89.4267762
20
-190.287955
11
78.7869333
21
-205.4832255
0
LINE
8
0
10
94.6386931
20
-216.5726443
11
106.5624033
21
-230.7827687
0
LINE
8
0
10
106.5624033
20
-230.7827687
11
120.7725277
21
-218.8590585
0
LINE
8
0
10
120.7725277
20
-218.8590585
11
108.8488175
21
-204.6489341
0
LINE
8
0
10
108.8488175
20
-204.6489341
11
94.6386931
21
-216.5726443
0
LINE
8
0
10
130.9846325
20
-196.6239381
11
149.5346325
21
-196.6239381
0
LINE
8
0
10
149.5346325
20
-196.6239381
11
149.5346325
21
-178.0739381
0
LINE
8
0
10
149.5346325
20
-178.0739381
11
130.9846325
21
-178.0739381
0
LINE
8
0
10
130.9846325
20
-178.0739381
11
130.9846325
21
-196.6239381
0
LINE
8
0
10
150.0346325
20
-215.6739381
11
168.5846325
21
-215.6739381
0
LINE
8
0
10
168.5846325
20
-215.6739381
11
168.5846325
21
-197.1239381
0
LINE
8
0
10
168.5846325
20
-197.1239381
11
150.0346325
21
-197.1239381
0
LINE
8
0
10
150.0346325
20
-197.1239381
11
150.0346325
21
-215.6739381
0
LINE
8
0
10
150.0346325
20
-196.6239381
11
168.5846325
21
-196.6239381
0
LINE
8
0
10
168.5846325
20
-196.6239381
11
168.5846325
21
-178.0739381
0
LINE
8
0
10
168.5846325
20
-178.0739381
11
150.0346325
21
-178.0739381
0
LINE
8
0
10
150.0346325
20
-178.0739381
11
150.0346325
21
-196.6239381
0
LINE
8
0
10
150.0346325
20
-177.5739382
11
168.5846325
21
-177.5739382
0
LINE
8
0
10
168.5846325
20
-177.5739382
11
168.5846325
21
-159.0239382
0
LINE
8
0
10
168.5846325
20
-159.0239382
11
150.0346325
21
-159.0239382
0
LINE
8
0
10
150.0346325
20
-159.0239382
11
150.0346325
21
-177.5739382
0
LINE
8
0
10
169.0846325
20
-196.6239382
11
187.6346325
21
-196.6239382
0
LINE
8
0
10
187.6346325
20
-196.6239382
11
187.6346325
21
-178.0739382
0
LINE
8
0
10
187.6346325
20
-178.0739382
11
169.0846325
21
-178.0739382
0
LINE
8
0
10
169.0846325
20
-178.0739382
11
169.0846325
21
-196.6239382
0
LINE
8
0
10
289.1480531
20
-151.4345618
11
306.2234181
21
-144.1864994
0
LINE
8
0
10
306.2234181
20
-144.1864994
11
298.9753557
21
-127.1111344
0
LINE
8
0
10
298.9753557
20
-127.1111344
11
281.8999907
21
-134.3591968
0
LINE
8
0
10
281.8999907
20
-134.3591968
11
289.1480531
21
-151.4345618
0
LINE
8
0
10
281.7046251
20
-133.8989443
11
298.7799901
21
-126.6508819
0
LINE
8
0
10
298.7799901
20
-126.6508819
11
291.5319277
21
-109.5755169
0
LINE
8
0
10
291.5319277
20
-109.5755169
11
274.4565627
21
-116.8235793
0
LINE
8
0
10
274.4565627
20
-116.8235793
11
281.7046251
21
-133.8989443
0
LINE
8
0
10
295.5185285
20
-117.6877076
11
312.5938935
21
-110.4396452
0
LINE
8
0
10
312.5938935
20
-110.4396452
11
305.3458311
21
-93.3642802
0
LINE
8
0
10
305.3458311
20
-93.3642802
11
288.2704661
21
-100.6123426
0
LINE
8
0
10
288.2704661
20
-100.6123426
11
295.5185285
21
-117.6877076
0
LINE
8
0
10
269.6281012
20
-155.0425897
11
286.1562722
21
-146.6210659
0
LINE
8
0
10
286.1562722
20
-146.6210659
11
277.7347484
21
-130.0928949
0
LINE
8
0
10
277.7347484
20
-130.0928949
11
261.2065774
21
-138.5144187
0
LINE
8
0
10
261.2065774
20
-138.5144187
11
269.6281012
21
-155.0425897
0
LINE
8
0
10
260.9795822
20
-138.0689154
11
277.5077532
21
-129.6473916
0
LINE
8
0
10
277.5077532
20
-129.6473916
11
269.0862294
21
-113.1192206
0
LINE
8
0
10
269.0862294
20
-113.1192206
11
252.5580584
21
-121.5407444
0
LINE
8
0
10
252.5580584
20
-121.5407444
11
260.9795822
21
-138.0689154
0
LINE
8
0
10
252.3310632
20
-121.0952411
11
268.8592342
21
-112.6737173
0
LINE
8
0
10
268.8592342
20
-112.6737173
11
260.4377104
21
-96.1455463
0
LINE
8
0
10
260.4377104
20
-96.1455463
11
243.9095394
21
-104.5670701
0
LINE
8
0
10
243.9095394
20
-104.5670701
11
252.3310632
21
-121.0952411
0
LINE
8
0
10
251.5761976
20
-162.2920356
11
267.4766511
21
-152.7380793
0
LINE
8
0
10
267.4766511
20
-152.7380793
11
257.9226948
21
-136.8376258
0
LINE
8
0
10
257.9226948
20
-136.8376258
11
242.0222413
21
-146.3915821
0
LINE
8
0
10
242.0222413
20
-146.3915821
11
251.5761976
21
-162.2920356
0
LINE
8
0
10
241.7647223
20
-145.9629985
11
257.6651758
21
-136.4090422
0
LINE
8
0
10
257.6651758
20
-136.4090422
11
248.1112195
21
-120.5085887
0
LINE
8
0
10
248.1112195
20
-120.5085887
11
232.210766
21
-130.062545
0
LINE
8
0
10
232.210766
20
-130.062545
11
241.7647223
21
-145.9629985
0
LINE
8
0
10
231.9532469
20
-129.6339614
11
247.8537004
21
-120.0800051
0
LINE
8
0
10
247.8537004
20
-120.0800051
11
238.2997441
21
-104.1795516
0
LINE
8
0
10
238.2997441
20
-104.1795516
11
222.3992906
21
-113.7335079
0
LINE
8
0
10
222.3992906
20
-113.7335079
11
231.9532469
21
-129.6339614
0
LINE
8
0
10
236.687169
20
-175.1274341
11
251.8824395
21
-164.4875912
0
LINE
8
0
10
251.8824395
20
-164.4875912
11
241.2425966
21
-149.2923207
0
LINE
8
0
10
241.2425966
20
-149.2923207
11
226.0473261
21
-159.9321636
0
LINE
8
0
10
226.0473261
20
-159.9321636
11
236.687169
21
-175.1274341
0
LINE
8
0
10
225.7605379
20
-159.5225877
11
240.9558084
21
-148.8827448
0
LINE
8
0
10
240.9558084
20
-148.8827448
11
230.3159655
21
-133.6874743
0
LINE
8
0
10
230.3159655
20
-133.6874743
11
215.120695
21
-144.3273172
0
LINE
8
0
10
215.120695
20
-144.3273172
11
225.7605379
21
-159.5225877
0
LINE
8
0
10
214.8339068
20
-143.9177412
11
230.0291773
21
-133.2778983
0
LINE
8
0
10
230.0291773
20
-133.2778983
11
219.3893344
21
-118.0826278
0
LINE
8
0
10
219.3893344
20
-118.0826278
11
204.1940639
21
-128.7224707
0
LINE
8
0
10
204.1940639
20
-128.7224707
11
214.8339068
21
-143.9177412
0
LINE
8
0
10
206.0585499
20
-166.3413413
11
221.2538204
21
-155.7014984
0
LINE
8
0
10
221.2538204
20
-155.7014984
11
210.6139775
21
-140.5062279
0
LINE
8
0
10
210.6139775
20
-140.5062279
11
195.418707
21
-151.1460708
0
LINE
8
0
10
195.418707
20
-151.1460708
11
206.0585499
21
-166.3413413
0
LINE
8
0
10
195.1319188
20
-150.7364948
11
210.3271893
21
-140.0966519
0
LINE
8
0
10
210.3271893
20
-140.0966519
11
199.6873464
21
-124.9013814
0
LINE
8
0
10
199.6873464
20
-124.9013814
11
184.4920759
21
-135.5412243
0
LINE
8
0
10
184.4920759
20
-135.5412243
11
195.1319188
21
-150.7364948
0
LINE
8
0
10
224.6370614
20
-216.1230684
11
239.8323319
21
-205.4832255
0
LINE
8
0
10
239.8323319
20
-205.4832255
11
229.192489
21
-190.287955
0
LINE
8
0
10
229.192489
20
-190.287955
11
213.9972185
21
-200.9277979
0
LINE
8
0
10
213.9972185
20
-200.9277979
11
224.6370614
21
-216.1230684
0
LINE
8
0
10
212.0568619
20
-230.7827687
11
223.9805721
21
-216.5726443
0
LINE
8
0
10
223.9805721
20
-216.5726443
11
209.7704477
21
-204.6489341
0
LINE
8
0
10
209.7704477
20
-204.6489341
11
197.8467375
21
-218.8590585
0
LINE
8
0
10
197.8467375
20
-218.8590585
11
212.0568619
21
-230.7827687
0
ENDSEC
0
EOF