0
SECTION
2
HEADER
9
$INSUNITS
70
4
0
ENDSEC
0
SECTION
2
TABLES
0
TABLE
2
LTYPE
0
LTYPE
72
65
70
64
2
CONTINUOUS
3
______
73
0
40
0
0
ENDTAB
0
TABLE
2
LAYER
0
ENDTAB
0
ENDSEC
0
SECTION
2
ENTITIES
0
LINE
8
0
10
9.4455661
20
-145.3784903
11
30.663203
21
-154.3848428
0
LINE
8
0
10
30.663203
20
-154.3848428
11
32.8114648
21
-149.3238552
0
LINE
8
0
10
9.4455661
20
-145.3784903
11
20.6107081
21
-119.0750641
0
LINE
8
0
10
45.9740218
20
-115.1481279
11
29.5773661
21
-108.1881604
0
LINE
8
0
10
3.0750907
20
-111.6316361
11
20.6107081
21
-119.0750641
0
LINE
8
0
10
29.5773661
20
-108.1881604
11
33.2990801
21
-99.4203517
0
LINE
8
0
10
33.2990801
20
-99.4203517
11
12.0814432
21
-90.4139992
0
LINE
8
0
10
12.0814432
20
-90.4139992
11
3.0750907
21
-111.6316361
0
LINE
8
0
10
32.8114648
20
-149.3238552
11
49.9744501
21
-158.068833
0
LINE
8
0
10
49.9744501
20
-158.068833
11
51.3037931
21
-155.4598505
0
LINE
8
0
10
45.9740218
20
-115.1481279
11
57.1982687
21
-93.119303
0
LINE
8
0
10
75.9697727
20
-107.0501396
11
77.7359691
21
-103.583784
0
LINE
8
0
10
77.7359691
20
-103.583784
11
57.1982687
21
-93.119303
0
LINE
8
0
10
51.3037931
20
-155.4598505
11
64.6825633
21
-163.4986267
0
LINE
8
0
10
94.7105672
20
-120.6141928
11
99.3074367
21
-112.9637172
0
LINE
8
0
10
99.3074367
20
-112.9637172
11
79.5497304
21
-101.0920895
0
LINE
8
0
10
79.5497304
20
-101.0920895
11
75.9697727
21
-107.0501396
0
LINE
8
0
10
63.6031867
20
-165.0401363
11
82.4846413
21
-178.2610731
0
LINE
8
0
10
82.4846413
20
-178.2610731
11
96.6892617
21
-157.9747727
0
LINE
8
0
10
64.6825633
20
-163.4986267
11
63.6031867
21
-165.0401363
0
LINE
8
0
10
115.1013843
20
-126.4491964
11
98.6773857
21
-114.9489888
0
LINE
8
0
10
98.6773857
20
-114.9489888
11
94.7105672
21
-120.6141928
0
LINE
8
0
10
96.6892617
20
-157.9747727
11
113.1132604
21
-169.4749803
0
LINE
8
0
10
113.1132604
20
-169.4749803
11
137.2608283
21
-134.9886792
0
LINE
8
0
10
137.2608283
20
-134.9886792
11
118.3793737
21
-121.7677424
0
LINE
8
0
10
118.3793737
20
-121.7677424
11
115.1013843
21
-126.4491964
0
LINE
8
0
10
75.6532943
20
-206.0357706
11
93.1260516
21
-218.270327
0
LINE
8
0
10
103.9295799
20
-205.8394982
11
107.7556857
21
-200.3752528
0
LINE
8
0
10
107.7556857
20
-200.3752528
11
88.8742311
21
-187.154316
0
LINE
8
0
10
88.8742311
20
-187.154316
11
75.6532943
21
-206.0357706
0
LINE
8
0
10
93.1260516
20
-218.270327
11
106.2850754
21
-233.9526408
0
LINE
8
0
10
106.2850754
20
-233.9526408
11
123.9423998
21
-219.1363864
0
LINE
8
0
10
123.9423998
20
-219.1363864
11
109.1261454
21
-201.479062
0
LINE
8
0
10
109.1261454
20
-201.479062
11
103.9295799
21
-205.8394982
0
LINE
8
0
10
128.7346325
20
-198.8739381
11
147.7846325
21
-198.8739381
0
LINE
8
0
10
147.7846325
20
-175.8239381
11
128.7346325
21
-175.8239381
0
LINE
8
0
10
128.7346325
20
-175.8239381
11
128.7346325
21
-198.8739381
0
LINE
8
0
10
147.7846325
20
-217.9239381
11
170.8346325
21
-217.9239381
0
LINE
8
0
10
170.8346325
20
-217.9239381
11
170.8346325
21
-198.8739381
0
LINE
8
0
10
147.7846325
20
-198.8739381
11
147.7846325
21
-217.9239381
0
LINE
8
0
10
170.8346325
20
-175.8239381
11
170.8346325
21
-156.7739382
0
LINE
8
0
10
170.8346325
20
-156.7739382
11
147.7846325
21
-156.7739382
0
LINE
8
0
10
147.7846325
20
-156.7739382
11
147.7846325
21
-175.8239381
0
LINE
8
0
10
170.8346325
20
-198.8739381
11
189.8846325
21
-198.8739382
0
LINE
8
0
10
189.8846325
20
-198.8739382
11
189.8846325
21
-175.8239382
0
LINE
8
0
10
189.8846325
20
-175.8239382
11
170.8346325
21
-175.8239381
0
LINE
8
0
10
287.9560622
20
-154.3848428
11
309.1736991
21
-145.3784903
0
LINE
8
0
10
298.0085571
20
-119.0750641
11
309.1736991
21
-145.3784903
0
LINE
8
0
10
285.8078004
20
-149.3238552
11
287.9560622
21
-154.3848428
0
LINE
8
0
10
289.0418991
20
-108.1881604
11
272.6452434
21
-115.1481279
0
LINE
8
0
10
298.0085571
20
-119.0750641
11
315.5441745
21
-111.6316361
0
LINE
8
0
10
315.5441745
20
-111.6316361
11
306.537822
21
-90.4139992
0
LINE
8
0
10
306.537822
20
-90.4139992
11
285.3201851
21
-99.4203517
0
LINE
8
0
10
285.3201851
20
-99.4203517
11
289.0418991
21
-108.1881604
0
LINE
8
0
10
268.6448151
20
-158.068833
11
285.8078004
21
-149.3238552
0
LINE
8
0
10
267.3154721
20
-155.4598505
11
268.6448151
21
-158.068833
0
LINE
8
0
10
261.4209965
20
-93.119303
11
272.6452434
21
-115.1481279
0
LINE
8
0
10
261.4209965
20
-93.119303
11
240.8832961
21
-103.583784
0
LINE
8
0
10
240.8832961
20
-103.583784
11
242.6494925
21
-107.0501396
0
LINE
8
0
10
253.9367019
20
-163.4986267
11
267.3154721
21
-155.4598505
0
LINE
8
0
10
242.6494925
20
-107.0501396
11
239.0695348
21
-101.0920895
0
LINE
8
0
10
239.0695348
20
-101.0920895
11
219.3118285
21
-112.9637172
0
LINE
8
0
10
219.3118285
20
-112.9637172
11
223.908698
21
-120.6141928
0
LINE
8
0
10
236.1346239
20
-178.2610731
11
255.0160785
21
-165.0401363
0
LINE
8
0
10
255.0160785
20
-165.0401363
11
253.9367019
21
-163.4986267
0
LINE
8
0
10
221.9300035
20
-157.9747727
11
236.1346239
21
-178.2610731
0
LINE
8
0
10
223.908698
20
-120.6141928
11
219.9418795
21
-114.9489888
0
LINE
8
0
10
219.9418795
20
-114.9489888
11
203.5178809
21
-126.4491964
0
LINE
8
0
10
205.5060048
20
-169.4749803
11
221.9300035
21
-157.9747727
0
LINE
8
0
10
181.3584369
20
-134.9886792
11
205.5060048
21
-169.4749803
0
LINE
8
0
10
203.5178809
20
-126.4491964
11
200.2398915
21
-121.7677424
0
LINE
8
0
10
200.2398915
20
-121.7677424
11
181.3584369
21
-134.9886792
0
LINE
8
0
10
225.4932136
20
-218.270327
11
242.9659709
21
-206.0357706
0
LINE
8
0
10
242.9659709
20
-206.0357706
11
229.7450341
21
-187.154316
0
LINE
8
0
10
229.7450341
20
-187.154316
11
210.8635795
21
-200.3752528
0
LINE
8
0
10
210.8635795
20
-200.3752528
11
214.6896853
21
-205.8394982
0
LINE
8
0
10
212.3341898
20
-233.9526408
11
225.4932136
21
-218.270327
0
LINE
8
0
10
214.6896853
20
-205.8394982
11
209.4931198
21
-201.479062
0
LINE
8
0
10
209.4931198
20
-201.479062
11
194.6768654
21
-219.1363864
0
LINE
8
0
10
194.6768654
20
-219.1363864
11
212.3341898
21
-233.9526408
0
ENDSEC
0
EOF